<svg width="27" height="27" viewBox="0 0 27 27" fill="none" xmlns="http://www.w3.org/2000/svg">
<path d="M13.5 0C6.05612 0 0 6.05612 0 13.5C0 20.9439 6.05612 27 13.5 27C20.9439 27 27 20.9439 27 13.5C27 6.05612 20.9439 0 13.5 0ZM13.5 24.8628C7.23442 24.8628 2.13722 19.7652 2.13722 13.5C2.13722 7.23479 7.23442 2.13722 13.5 2.13722C19.7652 2.13722 24.8628 7.23516 24.8628 13.5004C24.8628 19.7656 19.7652 24.8628 13.5 24.8628Z" fill="#262626"/>
<path d="M13.5 15.8955C9.70328 15.8955 6.15088 17.7994 3.49787 21.256L5.19339 22.5568C7.4328 19.6395 10.3829 18.0327 13.5 18.0327C16.6171 18.0327 19.5671 19.6395 21.8062 22.5568L23.5018 21.256C20.8487 17.7994 17.2967 15.8955 13.5 15.8955Z" fill="#262626"/>
<path d="M13.5 4.84424C10.436 4.84424 7.94327 7.35297 7.94327 10.4366C7.94327 13.5202 10.436 16.0289 13.5 16.0289C16.564 16.0289 19.0567 13.5202 19.0567 10.4366C19.0567 7.35302 16.564 4.84424 13.5 4.84424ZM13.5 13.8917C11.6146 13.8917 10.0805 12.3419 10.0805 10.4366C10.0805 8.53122 11.6146 6.9814 13.5 6.9814C15.3854 6.9814 16.9195 8.53158 16.9195 10.4366C16.9195 12.3415 15.3854 13.8917 13.5 13.8917Z" fill="#262626"/>
</svg>
