<svg width="27" height="27" viewBox="0 0 27 27" fill="none" xmlns="http://www.w3.org/2000/svg">
<path d="M13.5 0C6.05612 0 0 6.05612 0 13.5C0 20.9439 6.05612 27 13.5 27C20.9439 27 27 20.9439 27 13.5C27 6.05612 20.9439 0 13.5 0ZM13.5 24.8628C7.23442 24.8628 2.13722 19.7652 2.13722 13.5C2.13722 7.23479 7.23442 2.13722 13.5 2.13722C19.7652 2.13722 24.8628 7.23516 24.8628 13.5004C24.8628 19.7656 19.7652 24.8628 13.5 24.8628Z" fill="#828282"/>
<path d="M13.5 15.8954C9.70328 15.8954 6.15088 17.7993 3.49787 21.2559L5.19339 22.5567C7.4328 19.6395 10.3829 18.0327 13.5 18.0327C16.6171 18.0327 19.5671 19.6395 21.8062 22.5567L23.5018 21.2559C20.8487 17.7993 17.2967 15.8954 13.5 15.8954Z" fill="#828282"/>
<path d="M13.5 4.84436C10.436 4.84436 7.94327 7.35309 7.94327 10.4367C7.94327 13.5203 10.436 16.0291 13.5 16.0291C16.564 16.0291 19.0567 13.5203 19.0567 10.4367C19.0567 7.35315 16.564 4.84436 13.5 4.84436ZM13.5 13.8918C11.6146 13.8918 10.0805 12.342 10.0805 10.4367C10.0805 8.53134 11.6146 6.98153 13.5 6.98153C15.3854 6.98153 16.9195 8.53171 16.9195 10.4367C16.9195 12.3417 15.3854 13.8918 13.5 13.8918Z" fill="#828282"/>
</svg>
