<svg width="30" height="30" viewBox="0 0 30 30" fill="none" xmlns="http://www.w3.org/2000/svg">
<path d="M17.6891 2.14282H12.353C11.6568 2.14282 11.0924 2.70708 11.0924 3.40335V26.5546C11.0924 27.2508 11.6567 27.8152 12.353 27.8152H17.6891C18.3853 27.8152 18.9496 27.2509 18.9496 26.5546V3.40335C18.9496 2.70714 18.3853 2.14282 17.6891 2.14282ZM16.4286 25.2941H13.6134V4.66388H16.4286V25.2941Z" fill="#828282"/>
<path d="M6.59666 12.605H1.26053C0.564258 12.605 0 13.1694 0 13.8656V26.5966C0 27.2929 0.564258 27.8572 1.26053 27.8572H6.59666C7.29287 27.8572 7.85719 27.2933 7.85719 26.5966V13.8656C7.85713 13.1694 7.29287 12.605 6.59666 12.605ZM5.33613 25.3361H2.521V15.126H5.33613V25.3361Z" fill="#828282"/>
<path d="M28.7395 9.62183H23.4033C22.7071 9.62183 22.1428 10.1861 22.1428 10.8824V26.5967C22.1428 27.2929 22.7071 27.8572 23.4033 27.8572H28.7395C29.4361 27.8572 30 27.2934 30 26.5967V10.8823C30 10.1861 29.4357 9.62183 28.7395 9.62183ZM27.479 25.3361H24.6639V12.1428H27.479V25.3361Z" fill="#828282"/>
</svg>
