<svg width="340" height="392" viewBox="0 0 340 392" fill="none" xmlns="http://www.w3.org/2000/svg">
<path opacity="0.22" d="M251.7 355.3C299.8 326.9 309.3 298.3 320.3 245.8C331.3 193.3 320.7 136.4 291.3 91.4C265.7 52.1 221.5 20.7 174.8 25.5C137.8 29.3 107 54.4 77.4 77C61.8 89 45.6 100.7 33 115.8C2.1 152.7 -3.9 205.1 3.8 252.6C9.6 288.2 24 324.9 53.9 344.9C72.6 357.4 95.3 362 117.4 366.3C117.5 366.3 213.3 378 251.7 355.3Z" fill="#007FC2"/>
<path opacity="0.72" d="M34.1 330.5C48.5 323.8 67.9 325.1 83.6 325.2C141.6 325.7 199.6 326.2 257.7 326.7C270 326.8 282.6 327 294 331.9C300.9 334.9 307.9 341.4 306.7 349.2C305.5 357.8 295.8 361.3 287.7 362.6C249 368.7 208.5 362.7 171.1 375.1C149.1 382.4 127 396 104.6 390.1C94.8 387.5 84.8 383.4 78 375.3C63.5 358.2 46.6 358.9 33.2 349.2C33.3 349.3 19.5 338.7 34.1 330.5Z" fill="#314587"/>
<path d="M308.7 170.7C308.7 170.7 319.3 161.7 323.5 160.6C323.5 160.6 333.2 156.2 323.7 157L313.4 162L308.7 170.7Z" fill="#FBBC97"/>
<path d="M16.9 141C16.9 141 15.7 124.1 13.1 119.4C13.1 119.4 8.70001 107.1 16.1 116.2L20.5 129.5L16.9 141Z" fill="#FBBC97"/>
<path d="M71.2 158.1H37.5C35.4 158.1 33.6 156.4 33.6 154.2L14.3 95.6C14.3 93.5 16 91.7 18.2 91.7H52C54.1 91.7 54.9 93.1 55.9 95.6L75.2 154.2C75.1 156.4 73.3 158.1 71.2 158.1Z" fill="#B52C48"/>
<path d="M69.2 158.1H35.4C33.3 158.1 31.5 156.4 31.5 154.2L12.2 95.6C12.2 93.5 13.9 91.7 16.1 91.7H49.9C52 91.7 52.9 93.1 53.8 95.6L73.1 154.2C73.1 156.4 71.3 158.1 69.2 158.1Z" fill="#E54257"/>
<path d="M30.4 105.9H20.5C20.1 105.9 19.8 105.6 19.8 105.2L16.6 96.4C16.6 96 16.9 95.7 17.3 95.7H27.2C27.6 95.7 27.9 96 27.9 96.4L31.1 105.2C31.1 105.6 30.8 105.9 30.4 105.9Z" fill="#B52B47"/>
<path d="M44.7 157.7C44.3 154.6 43.4 151.5 42 148.7C41.1 146.9 40 145.2 39.4 143.3C38.3 139.6 39.5 135.5 42 132.5C42.9 131.5 43.9 130.4 43.8 129.1C41.9 128.2 39.6 128.8 37.9 130C36.2 131.2 35 133.1 33.9 134.8C32.8 136.6 31.6 138.4 29.9 139.7C29 133.7 29.8 127.4 32.2 121.8C32.5 121.1 32.8 120.3 32.3 119.8C31.8 119.3 31 119.4 30.4 119.7C28.6 120.7 27.9 122.9 27.5 124.9C27.1 126.9 26.8 129.1 25.4 130.6C24 128.6 24.2 125.9 24.4 123.5C24.6 121.5 24.8 119.5 25 117.5C25.1 116.4 25.2 115.3 25 114.3C24.8 113.2 24.2 112.2 23.3 111.7C23.1 111.6 22.8 111.5 22.5 111.5C22 111.6 21.9 112.2 21.8 112.7C21.2 116.6 20.5 120.5 19.9 124.3C19.6 125.9 19.4 127.6 19.5 129.2C19.7 131.3 20.4 133.4 21.4 135.3C24.6 142.1 29.7 148 35.8 152.4C36.6 153 37.4 153.5 38 154.3C39.1 155.8 39.3 158.2 41 158.8C41.4 159 41.9 157.9 42.4 157.8C43.4 157.7 43.6 158.5 44.5 158.2" fill="#B52B47"/>
<path d="M254.2 247.7C254.2 247.7 244.7 258.3 234.1 249C225.5 241.5 217.4 223.4 217.4 223.4L204.4 186.6L232.7 177.8L234.9 186.8C241.6 210.6 244.6 213 244.6 213L277.6 171.6L281.8 166.8C288.4 158.4 302.2 157.1 302.2 157.1C304.2 156.1 306.8 152.3 306.8 152.3C310 147.1 308.9 143.7 308.9 143.7C307.6 138.3 311.4 137.9 312.7 143.3C314 148.7 312.5 152.7 312.5 152.7L310.9 160.8L315.5 157.1L321.4 149.4L322.9 144.6C323.7 139.4 325.9 140.7 326.1 144.2C326.3 147.7 324.5 150.2 324.5 150.2L318.3 161.7L327.8 151.4L334 144.5C337.1 141.9 341.1 143.1 337.9 145.8C334.7 148.5 330.4 155.1 330.4 155.1L320 168.8C313.2 173.3 305.3 177 305.3 177C298.7 177 289.3 178.2 289.3 178.2C289.3 178.2 265.7 230.7 254.2 247.7Z" fill="#FFD0B6"/>
<path d="M220.3 225L243.3 211.2L241 205.3L215.3 217.5L220.3 225Z" fill="#F8AD97"/>
<path d="M74.2 219C74.2 219 76.9 218.2 87 199.4L90.5 192.2L117.1 204.9L97 233.4C97 233.4 86.8 247.3 77.8 251.7C64.1 258.6 59.1 247.2 59.1 247.2C59.1 247.2 52.2 229.3 32 174.3C32 174.3 26.4 165.4 21.4 160.1C21.4 160.1 16.6 145.6 15.8 140.9L16.8 125C16.8 125 18.4 116.9 18 112.4C17.6 107.9 21.6 110.2 22 114.5L21.6 124.4L21.2 139.3L25 126C25 126 25.4 122.8 28.2 120.3C31 117.9 33.6 118.7 30.4 123.1L28 127.8L26.8 138L27.6 144.3L32.4 137.2C32.4 137.2 34.2 133.2 39.2 130.3C44.2 127.4 46.8 130.7 41.8 133.6C41.8 133.6 38.4 135.3 37 141.5C37 141.5 36.2 146.3 37 148.6C37 148.6 46.6 160.4 45.4 171.7L74.2 219Z" fill="#FFD0B6"/>
<path d="M79 213.2L103.9 223.6L107.6 218.4L82.5 206.8L79 213.2Z" fill="#F8AD97"/>
<path d="M172.2 118L142.2 120.5L142.6 142.7L135 145.3C135 145.3 150.2 210 184 143.7L173.9 142.5L172.2 118Z" fill="#F8AD97"/>
<path d="M163.9 128.8C162.3 131.7 158.7 132.7 155.4 132.9C151.3 133.2 147.2 132.6 143.3 131.3C143 131.2 142.7 131.1 142.5 130.8C142.3 130.6 142.3 130.3 142.3 130C142.2 129 142.1 128 142 127.1C142 126.9 142 126.7 142.1 126.5C142.3 126.3 142.5 126.3 142.8 126.4C149.6 127.1 156.4 127.8 163.3 127.2" fill="#DC8E81"/>
<path d="M113.8 348.2C113.8 348.2 108.5 320.4 111 295L220.2 296.1C220.2 296.1 221.7 299.2 221.3 348.3H113.8V348.2Z" fill="#39A08F"/>
<path d="M221.1 316.6H110.3L110.1 303.8L221.7 303L221.1 316.6Z" fill="#1A7B68"/>
<path d="M163.4 348.2L156.1 330.4C156.1 330.4 155 329.3 152.9 326.3C150.8 323.3 154.9 325.9 154.9 325.9L158 329.4L165.2 348.4L163.4 348.2Z" fill="#1A7B68"/>
<path d="M180.1 142.3C180.1 142.3 217.5 139.6 233.2 170.7L249.2 203.9L220.2 220.8L223 311.6C223 311.6 179.3 310.6 105.3 313.7L108.3 222.3L71 207.6L95 160.5C95 160.5 99.8 147.9 134.9 143.8C134.9 143.8 136.7 162.8 152.2 164C152.1 164 176.1 164.5 180.1 142.3Z" fill="#212E54"/>
<path d="M174.3 73.4C173.1 62.8 162.8 54.4 149.4 54.8C136 55.2 125.4 64.3 125.8 75C125.8 75 128.3 88.3 129.3 92.9L174.3 85.7C174.3 85.7 174.2 82.9 174.6 78.4C174.6 78.3 174.6 75.9 174.3 73.4Z" fill="#010526"/>
<path d="M127.1 91C129.5 90 132.6 92.1 134.2 95.7C135.2 97.9 135.3 100.2 134.8 101.8L128.4 94.3C128.2 94 127.7 94 127.3 94.2C127 94.4 127 94.9 127.2 95.3L133.6 102.8C133.8 103 133.9 103 134.2 103C133.9 103.5 133.5 103.8 132.9 104.1C130.5 105.1 127.4 103 125.8 99.4C124.1 95.8 124.7 92 127.1 91Z" fill="#F7AA94"/>
<path d="M179.4 92.9C178.5 96.8 175.9 99.5 173.4 99C172.8 98.9 172.3 98.6 171.9 98.2C172.1 98.2 172.3 98 172.4 97.8L177.2 89.1C177.4 88.7 177.3 88.2 176.9 88.1C176.5 87.9 176 88 175.9 88.4L171.1 97.1C170.2 95.6 169.9 93.3 170.4 91C171.3 87.1 173.9 84.4 176.4 84.9C178.9 85.3 180.2 89 179.4 92.9Z" fill="#F7AA94"/>
<path d="M133.6 102.7L127.2 95.2C127 94.9 127 94.4 127.3 94.1C127.6 93.9 128.1 93.9 128.4 94.2L134.8 101.7C135 102 135 102.5 134.7 102.8C134.5 103 134.4 103 134.1 103C133.9 103 133.7 102.9 133.6 102.7Z" fill="#DC8E81"/>
<path d="M172 98C171.8 98 171.6 98.1 171.4 98C171 97.8 170.9 97.3 171.1 97L175.9 88.3C176.1 87.9 176.6 87.8 176.9 88C177.2 88.2 177.4 88.7 177.2 89L172.4 97.7C172.3 97.9 172.2 98 172 98Z" fill="#DC8E81"/>
<path d="M174.1 96.4C172.3 79.2 171.9 82.4 170.4 75.1C170.4 75.1 169.8 72.5 168.7 70.3C167.2 67.3 164.5 65.9 161.8 65.2C157.8 65.1 154.2 66.7 154.2 66.7C147.9 76.2 135.4 77.4 130.9 77.5L131.1 86.6C130.7 89.7 130.8 91.9 131.1 96.2C131.3 99 131.6 101.8 132 104.4L140.9 109.9V104.9C140.9 104.9 146.2 101.1 150.8 99.2C150.8 99.2 153.7 97.9 156.3 99.2C156.3 99.2 162.1 101.4 166.2 102.6L166.3 107L174.2 98C174.2 97.5 174.2 96.9 174.1 96.4Z" fill="#FDC8B8"/>
<path d="M165.3 78.7C165.3 78.7 162.7 77 160.7 77.8C158.7 78.6 158.8 76.9 158.8 76.9C158.8 76.9 157.4 73.2 164.5 76.4C168.3 78 165.3 78.7 165.3 78.7Z" fill="#010526"/>
<path d="M136.4 81.7C136.4 81.7 138.7 80 141.1 80.9C143.5 81.8 142.9 80.1 142.9 80.1C142.9 80.1 142.9 76.6 136.3 79.6C132.8 81.3 136.4 81.7 136.4 81.7Z" fill="#010526"/>
<path d="M140.1 93C141.205 93 142.1 92.1046 142.1 91C142.1 89.8954 141.205 89 140.1 89C138.995 89 138.1 89.8954 138.1 91C138.1 92.1046 138.995 93 140.1 93Z" fill="#010526"/>
<path d="M163.5 90C164.605 90 165.5 89.1046 165.5 88C165.5 86.8954 164.605 86 163.5 86C162.395 86 161.5 86.8954 161.5 88C161.5 89.1046 162.395 90 163.5 90Z" fill="#010526"/>
<path d="M154.6 130.9C171.4 129.5 175.9 116.8 174.2 98L166.3 107L166.2 102.6C162 101.4 156.3 99.2 156.3 99.2C153.7 97.9 150.8 99.2 150.8 99.2C146.2 101.1 140.9 104.9 140.9 104.9V109.9L132 104.4C134.5 120.3 140.1 132 154.6 130.9Z" fill="#010526"/>
<path d="M142.1 107.4C142.1 107.4 150.2 105.9 152.8 103.8C152.8 103.8 161.6 105.8 164.7 105.1C164.7 105.1 167.1 111.6 166.3 118.2C166.3 118.2 165.1 120.6 160.8 118.2L157.1 113C157.1 113 159.6 112.9 160 113.8L161.3 113.4C161.3 113.4 159.5 110.7 154.2 110.9C148.9 111.1 147.9 113.3 147.9 113.3L148.8 114C148.8 114 149.8 112.8 152.2 112.9L149.7 118.7C149.7 118.7 148.2 122.4 143.6 119.9C143.8 120.1 141.5 118.5 142.1 107.4Z" fill="#FFC7AE"/>
<path d="M152.8 103.9C151.4 104.8 150.7 104.9 148.1 105.8C146.7 106.2 146.3 106.8 145.2 107.9C144 109 143.8 110.8 143.7 112.7C143.7 112.9 143.7 113.2 143.7 113.4C143.9 114.1 144.7 113.8 145.2 113.4C148 111.2 151.3 110.4 154.6 110.3C157.8 110.2 161.1 110.9 164.3 111.6C164.5 109.6 163.9 107.6 162.7 106.5C161.5 105.4 162 105.7 160.5 105.1" fill="#F7AC95"/>
<path d="M152.8 103.9C150.9 104.9 151.9 104.5 149.7 105.3C148.5 105.7 147.8 106.3 146.9 107.2C145.9 108.2 145.2 109.6 145.1 111.2C145.1 111.4 145.1 111.6 145.2 111.7C145.4 112.3 146.1 112 146.5 111.7C148.9 109.9 151.7 109.1 154.5 109C157.3 108.9 160.1 109.3 162.9 109.7C163.4 108.4 162.5 107.2 161.4 106.3C160.3 105.4 155.9 104.4 154.7 104.2" fill="#ECEEFF"/>
<path d="M140.1 83.7C135.7 83.7 132.2 87.2 132.2 91.6C132.2 96 135.7 99.5 140.1 99.5C144.5 99.5 148 96 148 91.6C148 87.3 144.4 83.7 140.1 83.7ZM139.9 98.5C136.1 98.5 133 95.4 133 91.6C133 87.8 136.1 84.7 139.9 84.7C143.7 84.7 146.8 87.8 146.8 91.6C146.8 95.4 143.7 98.5 139.9 98.5Z" fill="#010526"/>
<path d="M163.9 80.2C159.5 80.2 156 83.7 156 88.1C156 92.5 159.5 96 163.9 96C168.3 96 171.8 92.5 171.8 88.1C171.8 83.7 168.3 80.2 163.9 80.2ZM163.8 94.9C160 94.9 156.9 91.8 156.9 88C156.9 84.2 160 81.1 163.8 81.1C167.6 81.1 170.7 84.2 170.7 88C170.7 91.8 167.6 94.9 163.8 94.9Z" fill="#010526"/>
<path d="M151.6 86.5L153.1 99.8C153.1 99.8 151.1 98.9 148.6 97.5L149.4 86.1L151.6 86.5Z" fill="#F99691"/>
<path d="M151.5 86.5L153 99.8C153 99.8 154.8 98.5 156.9 96.6L153.6 85.7L151.5 86.5Z" fill="#FFAB95"/>
<path d="M156.792 87.3448L146.655 88.4791L146.789 89.6716L156.926 88.5374L156.792 87.3448Z" fill="#010526"/>
<path d="M154.2 67C154.2 67 157.8 65.1 161.8 65.3C157.4 64.1 152.8 65.4 152.8 65.4C143.8 77.8 130.9 76.6 130.9 76.6L131 79.3C135.4 79.2 147.9 77.9 154.2 67Z" fill="#EDBBB2"/>
<path d="M212.7 188.3H187.7V192H212.7V188.3Z" fill="white"/>
<path d="M233.021 67.3887C230.431 67.1696 227.91 69.2171 227.684 71.8934C227.457 74.5698 229.613 76.839 232.203 77.058C234.879 77.2844 237.292 75.4887 237.526 72.726C237.759 69.9633 235.697 67.6151 233.021 67.3887ZM238.466 51.3285L253.656 39.3099C254.499 38.5986 255.104 37.6064 255.192 36.5704L256.068 26.2104C256.638 19.4764 250.948 12.7345 244.214 12.1649L234.199 11.3177C227.638 10.7626 220.796 15.5749 220.227 22.3089L220.132 23.4313C219.92 25.9349 222.121 26.6428 223.847 26.7889C225.488 26.9276 227.863 26.6068 228.074 24.1032L228.096 23.8442C228.301 21.4268 231.369 19.0778 233.959 19.2969L242.679 20.0345C245.182 20.2463 248.264 23.8982 248.053 26.4018L247.403 34.0855L232.119 46.1832C231.277 46.8945 230.757 47.894 230.67 48.93L229.859 58.513C229.647 61.0167 231.762 61.7173 233.488 61.8633C235.129 62.0021 237.59 61.6886 237.802 59.1849L238.466 51.3285Z" fill="black"/>
<path d="M259.526 113.179C257.944 113.045 256.405 114.295 256.267 115.93C256.128 117.564 257.445 118.95 259.027 119.084C260.661 119.222 262.134 118.125 262.277 116.438C262.42 114.751 261.16 113.317 259.526 113.179ZM262.851 103.372L272.127 96.0322C272.642 95.5979 273.012 94.992 273.065 94.3593L273.6 88.0328C273.948 83.9206 270.473 79.8036 266.361 79.4558L260.245 78.9384C256.239 78.5995 252.061 81.5382 251.713 85.6504L251.655 86.3357C251.526 87.8646 252.87 88.2969 253.924 88.3861C254.926 88.4709 256.376 88.2749 256.505 86.746L256.519 86.5879C256.644 85.1117 258.517 83.6773 260.099 83.811L265.424 84.2615C266.952 84.3908 268.835 86.6209 268.705 88.1498L268.308 92.8419L258.975 100.229C258.461 100.664 258.144 101.274 258.09 101.907L257.595 107.759C257.466 109.288 258.757 109.716 259.811 109.805C260.813 109.889 262.316 109.698 262.445 108.169L262.851 103.372Z" fill="black"/>
<path d="M212.088 121.398C210.316 121.601 208.896 123.32 209.105 125.151C209.315 126.983 211.072 128.219 212.845 128.016C214.677 127.807 216.058 126.272 215.842 124.381C215.625 122.49 213.92 121.189 212.088 121.398ZM213.582 109.853L222.18 99.7108C222.651 99.1182 222.924 98.3686 222.843 97.6595L222.033 90.5685C221.506 85.9594 216.765 82.1913 212.155 82.7183L205.301 83.5021C200.81 84.0156 196.856 88.1793 197.383 92.7884L197.471 93.5566C197.667 95.2702 199.244 95.4491 200.426 95.314C201.548 95.1856 203.103 94.6486 202.907 92.935L202.887 92.7577C202.698 91.1031 204.445 89.1074 206.218 88.9047L212.186 88.2223C213.9 88.0263 216.468 90.0674 216.664 91.781L217.265 97.0402L208.615 107.248C208.144 107.841 207.929 108.584 208.01 109.293L208.76 115.852C208.956 117.566 210.474 117.751 211.656 117.616C212.779 117.488 214.393 116.944 214.197 115.23L213.582 109.853Z" fill="black"/>
</svg>
