<svg width="210" height="210" viewBox="0 0 210 210" fill="none" xmlns="http://www.w3.org/2000/svg">
<path d="M82.0312 22.9688H127.969V68.9062H82.0312V22.9688Z" fill="#FFD782"/>
<path d="M95.1562 32.8125H101.719V39.375H95.1562V32.8125Z" fill="#5A6470"/>
<path d="M108.281 32.8125H114.844V39.375H108.281V32.8125Z" fill="#5A6470"/>
<path d="M118.125 59.0625H111.562C111.562 57.322 110.871 55.6528 109.64 54.4221C108.41 53.1914 106.74 52.5 105 52.5C103.26 52.5 101.59 53.1914 100.36 54.4221C99.1289 55.6528 98.4375 57.322 98.4375 59.0625H91.875C91.875 55.5815 93.2578 52.2431 95.7192 49.7817C98.1806 47.3203 101.519 45.9375 105 45.9375C108.481 45.9375 111.819 47.3203 114.281 49.7817C116.742 52.2431 118.125 55.5815 118.125 59.0625Z" fill="#5A6470"/>
<path d="M78.75 32.8125H82.0312V52.5H78.75C76.1393 52.5 73.6355 51.4629 71.7894 49.6168C69.9434 47.7708 68.9063 45.267 68.9062 42.6562C68.9062 40.0455 69.9434 37.5417 71.7894 35.6957C73.6355 33.8496 76.1393 32.8125 78.75 32.8125Z" fill="#F9BB4B"/>
<path d="M131.25 52.5H127.969V32.8125H131.25C133.861 32.8125 136.365 33.8496 138.211 35.6957C140.057 37.5417 141.094 40.0455 141.094 42.6562C141.094 45.267 140.057 47.7708 138.211 49.6168C136.365 51.4629 133.861 52.5 131.25 52.5Z" fill="#F9BB4B"/>
<path d="M82.0312 9.84375H127.969V22.9688H82.0312V9.84375Z" fill="#5A6470"/>
<path d="M62.3438 91.875L49.2188 111.562L32.8125 98.4375H19.6875C17.947 98.4375 16.2778 99.1289 15.0471 100.36C13.8164 101.59 13.125 103.26 13.125 105C13.125 106.74 13.8164 108.41 15.0471 109.64C16.2778 110.871 17.947 111.562 19.6875 111.562H26.25L52.5 131.25L72.1875 101.719L62.3438 91.875Z" fill="#FFD782"/>
<path d="M124.688 82.0312H85.3125L62.3438 91.875L78.75 108.281V154.219H131.25V108.281L147.656 91.875L124.688 82.0312Z" fill="#195C85"/>
<path d="M147.656 91.875L160.781 111.562L177.188 98.4375H190.312C192.053 98.4375 193.722 99.1289 194.953 100.36C196.184 101.59 196.875 103.26 196.875 105C196.875 106.74 196.184 108.41 194.953 109.64C193.722 110.871 192.053 111.562 190.312 111.562H183.75L157.5 131.25L137.812 101.719L147.656 91.875Z" fill="#FFD782"/>
<path d="M78.75 154.219H105V200.156H78.75V154.219Z" fill="#32B1CC"/>
<path d="M78.75 154.219L62.3438 160.781L52.5 177.188C52.0482 178.045 51.7745 178.985 51.6955 179.952C51.6165 180.918 51.7338 181.89 52.0404 182.809C52.3469 183.729 52.8364 184.577 53.4793 185.303C54.1222 186.028 54.9052 186.616 55.7813 187.031C62.3438 190.313 68.9063 177.188 68.9063 177.188H82.0313C84.642 177.188 87.1458 176.15 88.9918 174.304C90.8379 172.458 91.875 169.954 91.875 167.344V154.219H78.75Z" fill="#F4F4E6"/>
<path d="M66.1872 175.421L72.7532 165.578L78.2126 169.219L71.6465 179.063L66.1872 175.421Z" fill="#D8D7BA"/>
<path d="M105 154.219H131.25V200.156H105V154.219Z" fill="#53CFE0"/>
<path d="M131.25 154.219L147.656 160.781L157.5 177.188C157.952 178.045 158.226 178.985 158.305 179.952C158.384 180.918 158.266 181.89 157.96 182.809C157.653 183.729 157.164 184.577 156.521 185.303C155.878 186.028 155.095 186.616 154.219 187.031C147.656 190.313 141.094 177.188 141.094 177.188H127.969C125.358 177.188 122.854 176.15 121.008 174.304C119.162 172.458 118.125 169.954 118.125 167.344V154.219H131.25Z" fill="#F4F4E6"/>
<path d="M131.843 169.115L137.303 165.474L143.869 175.317L138.409 178.958L131.843 169.115Z" fill="#D8D7BA"/>
<path d="M193.594 144.375C192.724 144.375 191.889 144.029 191.274 143.414L184.711 136.851L189.351 132.211L193.594 136.454L197.836 132.211L202.476 136.851L195.914 143.414C195.298 144.029 194.464 144.375 193.594 144.375Z" fill="#66342E"/>
<path d="M52.5 75.4688C51.6299 75.4686 50.7954 75.1228 50.1802 74.5074L43.6177 67.9449L48.2574 63.3052L52.5 67.5478L56.7427 63.3052L61.3824 67.9449L54.8199 74.5074C54.2047 75.1228 53.3702 75.4686 52.5 75.4688Z" fill="#66342E"/>
<path d="M29.5313 85.3125C28.6611 85.3123 27.8266 84.9665 27.2114 84.3511L20.6489 77.7886L25.2886 73.1489L29.5313 77.3916L33.7739 73.1489L38.4136 77.7886L31.8511 84.3511C31.2359 84.9665 30.4014 85.3123 29.5313 85.3125Z" fill="#66342E"/>
<path d="M171.869 187.254C170.237 187.26 168.606 187.179 166.983 187.012L167.701 180.488C172.21 180.984 182.382 180.757 185.053 176.912C185.723 175.836 185.945 174.54 185.673 173.303C182.732 174.417 179.534 174.665 176.456 174.019C173.378 173.373 170.55 171.859 168.305 169.657C167.034 168.415 166.157 166.825 165.783 165.088C165.41 163.35 165.556 161.54 166.205 159.885C166.889 158.125 168.068 156.6 169.601 155.497C171.134 154.394 172.955 153.759 174.841 153.671C177.703 153.474 183.074 154.593 188.068 162.491C189.706 158.867 190.475 154.911 190.312 150.938H196.875C196.875 160.305 194.316 165.9 191.379 169.224C192.17 171.063 192.498 173.069 192.333 175.064C192.168 177.06 191.516 178.984 190.434 180.669C186.516 186.29 177.555 187.254 171.869 187.254ZM175.327 160.227H175.153C174.536 160.256 173.941 160.464 173.44 160.824C172.939 161.185 172.552 161.683 172.328 162.258C172.13 162.725 172.084 163.243 172.194 163.738C172.305 164.233 172.567 164.682 172.945 165.021C174.281 166.319 175.956 167.214 177.779 167.601C179.601 167.989 181.496 167.853 183.245 167.209C180.728 162.789 177.844 160.227 175.327 160.227Z" fill="#50B4F8"/>
<path d="M91.875 82.0312L105 101.719L118.125 82.0312H91.875Z" fill="#FFD782"/>
<path d="M101.719 111.562H108.281V118.125H101.719V111.562Z" fill="#F4F4E6"/>
<path d="M101.719 124.688H108.281V131.25H101.719V124.688Z" fill="#F4F4E6"/>
<path d="M101.719 137.812H108.281V144.375H101.719V137.812Z" fill="#F4F4E6"/>
</svg>
