<svg width="24" height="26" viewBox="0 0 24 26" fill="none" xmlns="http://www.w3.org/2000/svg">
<path d="M23.1427 10.1677L12.3094 0.237109C11.9564 -0.0858088 11.4135 -0.0779377 11.0704 0.254883L0.838942 10.1854C0.663797 10.3554 0.564774 10.5893 0.564774 10.8333V25.0972C0.564774 25.5958 0.968891 26 1.46756 26H8.9907C9.48932 26 9.89349 25.5958 9.89349 25.0972V18.4768H14.1065V25.0972C14.1065 25.5958 14.5106 26 15.0092 26H22.5324C23.031 26 23.4352 25.5961 23.4352 25.0972V10.8333C23.4352 10.5802 23.3292 10.3389 23.1427 10.1677ZM21.6296 24.1944H15.912V17.5741C15.912 17.0755 15.5079 16.6713 15.0092 16.6713H8.99075C8.49213 16.6713 8.08797 17.0755 8.08797 17.5741V24.1944H2.37035V11.2152L11.7168 2.14379L21.6296 11.2305V24.1944H21.6296Z" fill="#262626"/>
</svg>
