<svg width="179" height="179" viewBox="0 0 179 179" fill="none" xmlns="http://www.w3.org/2000/svg">
<path d="M89.5 179C138.929 179 179 138.929 179 89.5C179 40.0705 138.929 0 89.5 0C40.0705 0 0 40.0705 0 89.5C0 138.929 40.0705 179 89.5 179Z" fill="#FFCE00"/>
<path d="M179 89.5C179 87.1122 178.906 84.7463 178.723 82.4057L143.101 46.784L135.997 50.536L103.851 18.3901L75.1485 32.4808L90.2079 47.5402L47.1301 139.58L86.5003 178.951C87.4964 178.984 88.4963 179 89.5003 179C138.93 179 179 138.93 179 89.5Z" fill="#FFA300"/>
<path d="M80.7866 24.9631H98.2132V47.5154H80.7866V24.9631Z" fill="#555A66"/>
<path d="M89.4364 24.9631H98.2133V47.5154H89.4364V24.9631Z" fill="#333940"/>
<path d="M35.8906 46.7846L48.2113 34.464L64.1557 50.4084L51.8351 62.729L35.8906 46.7846Z" fill="#555A66"/>
<path d="M127.163 62.7474L114.842 50.4267L130.787 34.4823L143.107 46.8029L127.163 62.7474Z" fill="#333940"/>
<path d="M89.4999 157.409C122.237 157.409 148.776 130.87 148.776 98.1332C148.776 65.3962 122.237 38.8577 89.4999 38.8577C56.7629 38.8577 30.2244 65.3962 30.2244 98.1332C30.2244 130.87 56.7629 157.409 89.4999 157.409Z" fill="#707789"/>
<path d="M89.5 38.8577C89.4787 38.8577 89.4577 38.8584 89.4364 38.8584V157.408C89.4577 157.408 89.4787 157.408 89.5 157.408C122.237 157.408 148.776 130.87 148.776 98.1329C148.776 65.3958 122.237 38.8577 89.5 38.8577Z" fill="#555A66"/>
<path d="M89.5 143.186C114.382 143.186 134.552 123.015 134.552 98.1333C134.552 73.2515 114.382 53.0809 89.5 53.0809C64.6183 53.0809 44.4476 73.2515 44.4476 98.1333C44.4476 123.015 64.6183 143.186 89.5 143.186Z" fill="white"/>
<path d="M89.5 53.0809C89.4787 53.0809 89.4577 53.0816 89.4364 53.0816V143.185C89.4577 143.185 89.4787 143.185 89.5 143.185C114.382 143.185 134.552 123.015 134.552 98.1329C134.552 73.2512 114.382 53.0809 89.5 53.0809Z" fill="#E9EDF5"/>
<path d="M75.1486 18.3901H103.851V32.4808H75.1486V18.3901Z" fill="#707789"/>
<path d="M89.4364 18.3901H103.851V32.4808H89.4364V18.3901Z" fill="#555A66"/>
<path d="M85.7739 94.4239L110.491 69.7065L117.907 77.1217L93.1891 101.839L85.7739 94.4239Z" fill="#333940"/>
<path d="M89.5 107.319C94.5731 107.319 98.6856 103.206 98.6856 98.1332C98.6856 93.0601 94.5731 88.9476 89.5 88.9476C84.4269 88.9476 80.3143 93.0601 80.3143 98.1332C80.3143 103.206 84.4269 107.319 89.5 107.319Z" fill="#707789"/>
<path d="M89.5 88.9473C89.4787 88.9473 89.4577 88.9487 89.4364 88.9491V107.317C89.4577 107.317 89.4787 107.319 89.5 107.319C94.5732 107.319 98.6857 103.206 98.6857 98.1333C98.6857 93.0601 94.5732 88.9473 89.5 88.9473Z" fill="#555A66"/>
</svg>
