<svg width="222" height="222" viewBox="0 0 222 222" fill="none" xmlns="http://www.w3.org/2000/svg">
<path d="M104.465 46.6447C104.465 38.1593 97.5825 31.2773 89.0972 31.2773C80.6118 31.2773 73.7298 38.1593 73.7298 46.6447" stroke="#FEFEFE" stroke-width="9.37333" stroke-miterlimit="10"/>
<path d="M73.704 54.5381C73.704 63.0234 80.586 69.9054 89.0713 69.9054C97.5567 69.9054 104.439 63.0234 104.439 54.5381" stroke="#FEFEFE" stroke-width="9.37333" stroke-miterlimit="10"/>
<path d="M118.869 63.8621L118.844 22.0768" stroke="#FEFEFE" stroke-width="9.37333" stroke-miterlimit="10"/>
<path d="M125.035 69.856C121.631 69.856 118.869 67.0933 118.869 63.6893" stroke="#FEFEFE" stroke-width="9.37333" stroke-miterlimit="10"/>
<path d="M131.005 38.9486H118.227" stroke="#FEFEFE" stroke-width="9.37333" stroke-miterlimit="10"/>
<path d="M131.005 69.8561H124.887" stroke="#FEFEFE" stroke-width="9.37333" stroke-miterlimit="10"/>
<path d="M193.239 74.4193V45.7812" stroke="#FEFEFE" stroke-width="9.37333" stroke-miterlimit="10"/>
<path d="M193.24 46.6447C193.24 38.1593 186.358 31.2773 177.873 31.2773C169.387 31.2773 162.505 38.1593 162.505 46.6447" stroke="#FEFEFE" stroke-width="9.37333" stroke-miterlimit="10"/>
<path d="M162.479 54.3901C162.479 62.8755 169.361 69.7575 177.847 69.7575C186.332 69.7575 193.214 62.8755 193.214 54.3901" stroke="#FEFEFE" stroke-width="9.37333" stroke-miterlimit="10"/>
<path d="M28.7367 74.5427V46.6447" stroke="#FEFEFE" stroke-width="9.37333" stroke-miterlimit="10"/>
<path d="M28.7367 46.6447C28.7367 38.1593 35.6187 31.2773 44.104 31.2773C52.5893 31.2773 59.4713 38.1593 59.4713 46.6447" stroke="#FEFEFE" stroke-width="9.37333" stroke-miterlimit="10"/>
<path d="M59.4713 74.5427V46.6447" stroke="#FEFEFE" stroke-width="9.37333" stroke-miterlimit="10"/>
<path d="M27.2567 69.8561H42.92" stroke="#FEFEFE" stroke-width="9.37333" stroke-miterlimit="10"/>
<path d="M140.699 63.8373L140.674 22.052" stroke="#FEFEFE" stroke-width="9.37333" stroke-miterlimit="10"/>
<path d="M146.865 69.8313C143.461 69.8313 140.699 67.0687 140.699 63.6647" stroke="#FEFEFE" stroke-width="9.37333" stroke-miterlimit="10"/>
<path d="M152.859 38.924H140.057" stroke="#FEFEFE" stroke-width="9.37333" stroke-miterlimit="10"/>
<path d="M152.859 69.8313H146.717" stroke="#FEFEFE" stroke-width="9.37333" stroke-miterlimit="10"/>
</svg>
