<svg width="375" height="668" viewBox="0 0 375 668" fill="none" xmlns="http://www.w3.org/2000/svg">
<g clip-path="url(#clip0)">
<path d="M376 599.609L-1 600V0.390778L376 0V599.609Z" fill="#F99B46"/>
<path opacity="0.98" d="M333.048 147.691H65.6356V358.528H333.048V147.691Z" fill="#FFCA72"/>
<path d="M302.794 121.632H46.7311V322.901H302.794V121.632Z" fill="#F9F9F9"/>
<path d="M273.201 142.994H59.2992V158.267H273.201V142.994Z" fill="#395AA2"/>
<path d="M225.853 167.209H59.2992V180.012H225.853V167.209Z" fill="#222F64"/>
<path d="M289.808 191.389H59.2992V200.991H289.808V191.389Z" fill="#BAB8C4"/>
<path fill-rule="evenodd" clip-rule="evenodd" d="M58.7938 190.884H290.313V201.497H58.7938V190.884ZM59.8046 191.894V200.486H289.303V191.894H59.8046Z" fill="#FEFEFE"/>
<path d="M69.7785 253.109H59.2992V304.671H69.7785V253.109Z" fill="#0F8ECE"/>
<path d="M83.0081 222.458H72.5288V304.671H83.0081V222.458Z" fill="#CFDDFF"/>
<path d="M96.2029 253.109H85.7236V304.671H96.2029V253.109Z" fill="#0F8ECE"/>
<path d="M109.398 275.237H98.9185V304.671H109.398V275.237Z" fill="#CFDDFF"/>
<path d="M122.627 253.109H112.148V304.671H122.627V253.109Z" fill="#0F8ECE"/>
<path d="M135.822 222.458H125.343V304.671H135.822V222.458Z" fill="#CFDDFF"/>
<path d="M149.052 231.643H138.573V304.636H149.052V231.643Z" fill="#0F8ECE"/>
<path d="M162.247 212.821H151.767V304.671H162.247V212.821Z" fill="#CFDDFF"/>
<path d="M292.35 212.612H172.204V215.847H292.35V212.612Z" fill="#77797A"/>
<path d="M292.35 221.553H172.204V224.789H292.35V221.553Z" fill="#77797A"/>
<path d="M292.35 230.46H172.204V233.696H292.35V230.46Z" fill="#77797A"/>
<path d="M292.35 239.401H172.204V242.637H292.35V239.401Z" fill="#77797A"/>
<path d="M292.35 248.343H172.204V251.579H292.35V248.343Z" fill="#77797A"/>
<path d="M292.35 257.284H172.204V260.52H292.35V257.284Z" fill="#77797A"/>
<path d="M292.35 266.191H172.204V269.427H292.35V266.191Z" fill="#77797A"/>
<path d="M292.35 275.132H172.204V278.368H292.35V275.132Z" fill="#77797A"/>
<path d="M292.35 284.074H172.204V287.31H292.35V284.074Z" fill="#77797A"/>
<path d="M292.35 293.015H172.204V296.251H292.35V293.015Z" fill="#77797A"/>
<path d="M292.35 301.922H172.204V305.158H292.35V301.922Z" fill="#77797A"/>
<path d="M292.35 310.864H172.204V314.099H292.35V310.864Z" fill="#77797A"/>
<path d="M116.5 181.612L100.276 204.053C97.9437 206.732 96.76 204.227 96.76 204.227L86.3155 195.46C84.0178 192.85 82.9385 195.46 82.9385 195.46L67.7244 216.056C65.9489 219.709 63.8252 216.056 63.8252 216.056L50.4215 204.053C43.2496 196.434 42.9711 204.992 42.9711 204.992L31.0992 228.164C31.0992 228.164 28.6274 231.852 31.3778 231.817L43.2496 208.646C43.2496 208.646 43.5281 200.087 50.7 207.706L64.1037 219.709C64.1037 219.709 66.2622 223.362 68.0029 219.709L83.1822 199.147C83.1822 199.147 84.2615 196.538 86.5592 199.147L97.0037 207.915C97.0037 207.915 98.1874 210.385 100.52 207.741L118.067 183.491L122.244 187.631L126.979 170.931L111.313 177.681L116.5 181.612Z" fill="#6AC8FF"/>
<path fill-rule="evenodd" clip-rule="evenodd" d="M127.755 170.047L122.497 188.593L118.13 184.266L100.915 208.057L100.899 208.075C100.28 208.777 99.6961 209.187 99.1403 209.365C98.5688 209.548 98.0677 209.47 97.6652 209.274C97.277 209.084 96.9997 208.794 96.8256 208.569C96.7367 208.454 96.6697 208.35 96.6242 208.273C96.6172 208.262 96.6107 208.25 96.6047 208.24L86.2051 199.51L86.1799 199.481C85.6406 198.869 85.2197 198.618 84.9222 198.532C84.6445 198.452 84.4363 198.504 84.2644 198.605C84.0767 198.715 83.9209 198.892 83.8061 199.062C83.7507 199.145 83.7095 199.219 83.6827 199.271C83.6739 199.288 83.6668 199.303 83.6614 199.314C83.6586 199.32 83.6562 199.325 83.6543 199.329L83.6492 199.341L83.6488 199.342L83.6483 199.343L83.6256 199.398L68.4378 219.971C67.9829 220.91 67.4528 221.488 66.8401 221.722C66.1969 221.969 65.5969 221.788 65.1395 221.512C64.6877 221.239 64.3199 220.845 64.0743 220.54C63.9489 220.384 63.8493 220.243 63.7805 220.141C63.7529 220.1 63.7301 220.065 63.7124 220.037L50.3467 208.068L50.3319 208.053C48.5576 206.167 47.2766 205.36 46.383 205.128C45.9486 205.015 45.6174 205.04 45.3593 205.132C45.0986 205.224 44.8737 205.396 44.6774 205.638C44.2728 206.135 44.0338 206.869 43.9005 207.527C43.8356 207.849 43.7989 208.136 43.7785 208.342C43.7684 208.445 43.7623 208.527 43.7589 208.583C43.7572 208.61 43.7561 208.631 43.7554 208.645L43.7548 208.659L43.7547 208.662L43.751 208.775L31.6887 232.318L31.3841 232.322C30.5855 232.332 29.9835 232.063 29.7139 231.47C29.4789 230.953 29.5787 230.341 29.7229 229.859C29.8745 229.351 30.1161 228.856 30.3125 228.497C30.4119 228.315 30.5024 228.164 30.5683 228.057C30.6014 228.003 30.6284 227.961 30.6475 227.931L30.6618 227.909L42.4721 204.858C42.4763 204.792 42.4831 204.701 42.4941 204.59C42.517 204.358 42.5581 204.036 42.6313 203.674C42.7744 202.966 43.0533 202.037 43.6148 201.347C43.9015 200.994 44.2717 200.692 44.7441 200.526C45.219 200.358 45.7587 200.34 46.3589 200.496C47.5315 200.801 48.97 201.777 50.7746 203.691L64.2219 215.733L64.2617 215.802L64.2649 215.807L64.2793 215.831C64.2927 215.852 64.3135 215.885 64.341 215.927C64.3962 216.01 64.4777 216.126 64.5804 216.256C64.7911 216.521 65.0684 216.811 65.3711 216.994C65.6674 217.174 65.9325 217.222 66.1859 217.125C66.461 217.02 66.8507 216.698 67.2699 215.835L67.2902 215.793L82.4999 195.203C82.5103 195.181 82.5236 195.153 82.5397 195.122C82.5809 195.042 82.642 194.932 82.7236 194.811C82.883 194.574 83.1406 194.261 83.5099 194.045C83.8952 193.819 84.3876 193.709 84.9585 193.873C85.5018 194.03 86.0691 194.422 86.6692 195.097L97.1697 203.911L97.2157 204.009L97.2162 204.01L97.2167 204.011L97.2218 204.021C97.2277 204.032 97.2378 204.051 97.2519 204.075C97.2803 204.124 97.3243 204.193 97.383 204.27C97.5042 204.429 97.6689 204.593 97.868 204.692C98.0522 204.783 98.2827 204.828 98.5873 204.73C98.9056 204.627 99.3391 204.356 99.8803 203.738L115.801 181.717L110.316 177.56L127.755 170.047ZM96.3599 204.551L85.9614 195.822L85.9362 195.793C85.3969 195.181 84.976 194.93 84.6785 194.844C84.4008 194.764 84.1926 194.816 84.0207 194.917C83.833 195.027 83.6772 195.204 83.5624 195.375C83.507 195.457 83.4658 195.531 83.439 195.583C83.4257 195.609 83.4162 195.629 83.4106 195.641L83.4055 195.653L83.4051 195.654L83.4046 195.655L83.3818 195.71L68.1581 216.32C67.6943 217.259 67.1596 217.835 66.5463 218.069C65.9021 218.315 65.3034 218.135 64.8468 217.858C64.3966 217.585 64.032 217.19 63.7891 216.884C63.6649 216.728 63.5666 216.588 63.4987 216.485C63.472 216.445 63.4499 216.411 63.4327 216.383L50.0682 204.415L50.0534 204.399C48.279 202.514 46.998 201.707 46.1045 201.474C45.67 201.361 45.3388 201.387 45.0807 201.478C44.8201 201.57 44.5952 201.743 44.3988 201.984C43.9943 202.482 43.7553 203.215 43.622 203.874C43.557 204.196 43.5204 204.483 43.5 204.689C43.4898 204.792 43.4838 204.874 43.4804 204.93C43.4786 204.957 43.4776 204.978 43.4769 204.992L43.4763 205.006L43.4762 205.009L43.4725 205.122L31.5355 228.42L31.5192 228.445L31.5184 228.446L31.5144 228.452L31.4967 228.479C31.481 228.504 31.4576 228.54 31.4284 228.588C31.37 228.682 31.2888 228.818 31.1994 228.982C31.0183 229.313 30.8139 229.738 30.6913 230.148C30.5613 230.583 30.5589 230.886 30.634 231.052C30.6663 231.123 30.7498 231.251 31.0769 231.296L42.7506 208.511C42.7548 208.445 42.7617 208.354 42.7726 208.243C42.7955 208.011 42.8366 207.689 42.9098 207.327C43.0529 206.619 43.3318 205.69 43.8933 205C44.18 204.647 44.5503 204.345 45.0226 204.179C45.4975 204.011 46.0372 203.993 46.6374 204.15C47.81 204.454 49.2486 205.43 51.0531 207.344L64.499 219.385L64.5384 219.452L64.5417 219.457L64.5564 219.481C64.5663 219.497 64.5801 219.518 64.5977 219.545C64.6043 219.555 64.6115 219.566 64.6191 219.577C64.6752 219.66 64.7579 219.777 64.862 219.906C65.0755 220.172 65.3561 220.462 65.6615 220.647C65.9613 220.827 66.2274 220.875 66.4785 220.779C66.7505 220.674 67.136 220.354 67.5467 219.492L67.5675 219.448L82.7436 198.891C82.754 198.869 82.7673 198.841 82.7834 198.81C82.8246 198.729 82.8857 198.62 82.9673 198.499C83.1267 198.262 83.3843 197.949 83.7537 197.733C84.1389 197.507 84.6313 197.397 85.2022 197.561C85.7455 197.718 86.3128 198.11 86.9129 198.785L97.4123 207.598L97.4582 207.694L97.459 207.696L97.4594 207.697L97.4642 207.706C97.47 207.717 97.48 207.735 97.494 207.759C97.5223 207.806 97.566 207.875 97.6246 207.95C97.7453 208.106 97.9097 208.268 98.109 208.366C98.294 208.456 98.5263 208.5 98.8327 208.402C99.1517 208.3 99.5849 208.033 100.125 207.425L118.003 182.717L121.992 186.67L126.203 171.816L112.309 177.802L117.199 181.508L100.672 204.368L100.657 204.385C100.039 205.095 99.4551 205.511 98.8982 205.691C98.3249 205.877 97.8221 205.797 97.4188 205.597C97.0303 205.405 96.7534 205.111 96.5797 204.883C96.4911 204.767 96.4243 204.662 96.3789 204.584C96.3721 204.572 96.3657 204.561 96.3599 204.551Z" fill="#6AC8FF"/>
<path opacity="0.98" d="M333.396 147.691H65.9837V358.528H333.396V147.691Z" fill="#FFCA72"/>
<path d="M303.142 121.632H47.0793V322.901H303.142V121.632Z" fill="#F9F9F9"/>
<path d="M273.55 142.994H59.6474V158.267H273.55V142.994Z" fill="#395AA2"/>
<path d="M226.201 167.209H59.6474V180.012H226.201V167.209Z" fill="#222F64"/>
<path d="M290.156 191.389H59.6474V200.991H290.156V191.389Z" fill="#BAB8C4"/>
<path fill-rule="evenodd" clip-rule="evenodd" d="M59.142 190.884H290.662V201.497H59.142V190.884ZM60.1528 191.894V200.486H289.651V191.894H60.1528Z" fill="#FEFEFE"/>
<path d="M70.1267 253.109H59.6474V304.671H70.1267V253.109Z" fill="#0F8ECE"/>
<path d="M83.3563 222.458H72.877V304.671H83.3563V222.458Z" fill="#CFDDFF"/>
<path d="M96.5511 253.109H86.0718V304.671H96.5511V253.109Z" fill="#0F8ECE"/>
<path d="M109.746 275.237H99.2667V304.671H109.746V275.237Z" fill="#CFDDFF"/>
<path d="M122.976 253.109H112.496V304.671H122.976V253.109Z" fill="#0F8ECE"/>
<path d="M136.17 222.458H125.691V304.671H136.17V222.458Z" fill="#CFDDFF"/>
<path d="M149.4 231.643H138.921V304.636H149.4V231.643Z" fill="#0F8ECE"/>
<path d="M162.595 212.821H152.116V304.671H162.595V212.821Z" fill="#CFDDFF"/>
<path d="M292.698 212.612H172.552V215.847H292.698V212.612Z" fill="#77797A"/>
<path d="M292.698 221.553H172.552V224.789H292.698V221.553Z" fill="#77797A"/>
<path d="M292.698 230.46H172.552V233.696H292.698V230.46Z" fill="#77797A"/>
<path d="M292.698 239.401H172.552V242.637H292.698V239.401Z" fill="#77797A"/>
<path d="M292.698 248.343H172.552V251.579H292.698V248.343Z" fill="#77797A"/>
<path d="M292.698 257.284H172.552V260.52H292.698V257.284Z" fill="#77797A"/>
<path d="M292.698 266.191H172.552V269.427H292.698V266.191Z" fill="#77797A"/>
<path d="M292.698 275.132H172.552V278.368H292.698V275.132Z" fill="#77797A"/>
<path d="M292.698 284.074H172.552V287.31H292.698V284.074Z" fill="#77797A"/>
<path d="M292.698 293.015H172.552V296.251H292.698V293.015Z" fill="#77797A"/>
<path d="M292.698 301.922H172.552V305.158H292.698V301.922Z" fill="#77797A"/>
<path d="M292.698 310.864H172.552V314.099H292.698V310.864Z" fill="#77797A"/>
<path d="M116.848 181.612L100.624 204.053C98.2919 206.732 97.1082 204.227 97.1082 204.227L86.6637 195.46C84.366 192.85 83.2867 195.46 83.2867 195.46L68.0726 216.056C66.2971 219.709 64.1734 216.056 64.1734 216.056L50.7697 204.053C43.5978 196.434 43.3193 204.992 43.3193 204.992L31.4474 228.164C31.4474 228.164 28.9756 231.852 31.726 231.817L43.5978 208.646C43.5978 208.646 43.8763 200.087 51.0482 207.706L64.4519 219.709C64.4519 219.709 66.6104 223.362 68.3511 219.709L83.5304 199.147C83.5304 199.147 84.6097 196.538 86.9074 199.147L97.3519 207.915C97.3519 207.915 98.5356 210.385 100.868 207.741L118.415 183.491L122.593 187.631L127.327 170.931L111.661 177.681L116.848 181.612Z" fill="#6AC8FF"/>
<path fill-rule="evenodd" clip-rule="evenodd" d="M128.104 170.047L122.845 188.593L118.478 184.266L101.263 208.057L101.247 208.075C100.628 208.777 100.044 209.187 99.4885 209.365C98.9169 209.548 98.4159 209.47 98.0134 209.274C97.6252 209.084 97.3479 208.794 97.1738 208.569C97.0849 208.454 97.0179 208.35 96.9724 208.273C96.9654 208.262 96.9589 208.25 96.9529 208.24L86.5533 199.51L86.5281 199.481C85.9888 198.869 85.5679 198.618 85.2704 198.532C84.9927 198.452 84.7845 198.504 84.6126 198.605C84.4249 198.715 84.2691 198.892 84.1543 199.062C84.0989 199.145 84.0577 199.219 84.0309 199.271C84.0176 199.297 84.0081 199.317 84.0025 199.329L83.9974 199.341L83.997 199.342L83.9965 199.343L83.9738 199.398L68.786 219.971C68.3311 220.91 67.801 221.488 67.1883 221.722C66.5451 221.969 65.9451 221.788 65.4877 221.512C65.0359 221.239 64.6681 220.845 64.4225 220.54C64.2971 220.384 64.1975 220.243 64.1287 220.141C64.1011 220.1 64.0783 220.065 64.0606 220.037L50.6949 208.068L50.6801 208.053C48.9058 206.167 47.6248 205.36 46.7312 205.128C46.2968 205.015 45.9656 205.04 45.7075 205.132C45.4468 205.224 45.2219 205.396 45.0256 205.638C44.621 206.135 44.382 206.869 44.2487 207.527C44.1838 207.849 44.1471 208.136 44.1267 208.342C44.1166 208.445 44.1105 208.527 44.1071 208.583C44.1054 208.61 44.1043 208.631 44.1036 208.645L44.103 208.659L44.1029 208.662L44.0992 208.775L32.0369 232.318L31.7323 232.322C30.9337 232.332 30.3317 232.063 30.0621 231.47C29.8271 230.953 29.9269 230.341 30.0711 229.859C30.2227 229.351 30.4643 228.856 30.6608 228.497C30.7601 228.315 30.8506 228.164 30.9166 228.057C30.9496 228.003 30.9766 227.961 30.9957 227.931L31.01 227.909L42.8203 204.858C42.8245 204.792 42.8314 204.701 42.8423 204.59C42.8652 204.358 42.9063 204.036 42.9795 203.674C43.1226 202.966 43.4015 202.037 43.963 201.347C44.2497 200.994 44.6199 200.692 45.0923 200.526C45.5672 200.358 46.1069 200.34 46.7071 200.496C47.8797 200.801 49.3182 201.777 51.1228 203.691L64.5701 215.733L64.6099 215.802L64.6131 215.807L64.6275 215.831C64.6409 215.852 64.6617 215.885 64.6892 215.927C64.7444 216.01 64.8259 216.126 64.9286 216.256C65.1393 216.521 65.4166 216.811 65.7193 216.994C66.0156 217.174 66.2807 217.222 66.5341 217.125C66.8092 217.02 67.1989 216.698 67.6181 215.835L67.6384 215.793L82.8481 195.203C82.8585 195.181 82.8718 195.153 82.8879 195.122C82.9291 195.042 82.9902 194.932 83.0718 194.811C83.2312 194.574 83.4888 194.261 83.8581 194.045C84.2434 193.819 84.7358 193.709 85.3067 193.873C85.85 194.03 86.4173 194.422 87.0174 195.097L97.5179 203.911L97.5639 204.009L97.5647 204.01L97.5651 204.011L97.57 204.021C97.5759 204.032 97.5859 204.051 97.6001 204.075C97.6285 204.124 97.6724 204.193 97.7312 204.27C97.8524 204.429 98.0171 204.593 98.2162 204.692C98.4004 204.783 98.6309 204.828 98.9355 204.73C99.2538 204.627 99.6873 204.356 100.229 203.738L116.149 181.717L110.664 177.56L128.104 170.047ZM96.7081 204.551L86.3096 195.822L86.2844 195.793C85.7451 195.181 85.3242 194.93 85.0267 194.844C84.749 194.764 84.5408 194.816 84.3689 194.917C84.1812 195.027 84.0254 195.204 83.9106 195.375C83.8552 195.457 83.814 195.531 83.7872 195.583C83.7739 195.609 83.7644 195.629 83.7588 195.641L83.7537 195.653L83.7533 195.654L83.7528 195.655L83.73 195.71L68.5063 216.32C68.0425 217.259 67.5078 217.835 66.8945 218.069C66.2503 218.315 65.6516 218.135 65.195 217.858C64.7448 217.585 64.3802 217.19 64.1373 216.884C64.0131 216.728 63.9148 216.588 63.8469 216.485C63.8202 216.445 63.7981 216.411 63.7809 216.383L50.4164 204.415L50.4016 204.399C48.6272 202.514 47.3462 201.707 46.4527 201.474C46.0182 201.361 45.687 201.387 45.429 201.478C45.1683 201.57 44.9434 201.743 44.747 201.984C44.3425 202.482 44.1035 203.215 43.9702 203.874C43.9053 204.196 43.8686 204.483 43.8482 204.689C43.838 204.792 43.832 204.874 43.8286 204.93C43.8276 204.945 43.8268 204.958 43.8263 204.969C43.8258 204.978 43.8254 204.986 43.8251 204.992L43.8245 205.006L43.8244 205.009L43.8207 205.122L31.8837 228.42L31.8674 228.445L31.8666 228.446L31.8626 228.452L31.8449 228.479C31.8292 228.504 31.8058 228.54 31.7766 228.588C31.7182 228.682 31.637 228.818 31.5476 228.982C31.3665 229.313 31.1621 229.738 31.0395 230.148C30.9095 230.583 30.9071 230.886 30.9822 231.052C31.0145 231.123 31.098 231.251 31.4251 231.296L43.0988 208.511C43.103 208.445 43.1099 208.354 43.1208 208.243C43.1437 208.011 43.1848 207.689 43.258 207.327C43.4011 206.619 43.68 205.69 44.2415 205C44.5282 204.647 44.8985 204.345 45.3708 204.179C45.8457 204.011 46.3854 203.993 46.9857 204.15C48.1582 204.454 49.5968 205.43 51.4013 207.344L64.8472 219.385L64.8866 219.452L64.8899 219.457L64.9046 219.481C64.9109 219.491 64.9189 219.503 64.9284 219.518C64.9393 219.535 64.9524 219.555 64.9673 219.577C65.0234 219.66 65.1061 219.777 65.2102 219.906C65.4237 220.172 65.7043 220.462 66.0097 220.647C66.3095 220.827 66.5756 220.875 66.8267 220.779C67.0987 220.674 67.4842 220.354 67.8949 219.492L67.9157 219.448L83.0918 198.891C83.1022 198.869 83.1155 198.841 83.1316 198.81C83.1728 198.729 83.2339 198.62 83.3155 198.499C83.4749 198.262 83.7325 197.949 84.1018 197.733C84.4871 197.507 84.9795 197.397 85.5504 197.561C86.0937 197.718 86.661 198.11 87.2611 198.785L97.7605 207.598L97.8064 207.694L97.8072 207.696L97.8076 207.697L97.8124 207.706C97.8182 207.717 97.8282 207.735 97.8422 207.759C97.8705 207.806 97.9142 207.875 97.9728 207.95C98.0935 208.106 98.2579 208.268 98.4572 208.366C98.6422 208.456 98.8744 208.5 99.1809 208.402C99.4999 208.3 99.9331 208.033 100.473 207.425L118.351 182.717L122.34 186.67L126.551 171.816L112.657 177.802L117.547 181.508L101.021 204.368L101.006 204.385C100.387 205.095 99.8033 205.511 99.2464 205.691C98.6731 205.877 98.1703 205.797 97.767 205.597C97.3785 205.405 97.1016 205.111 96.9279 204.883C96.8393 204.767 96.7725 204.662 96.7271 204.584C96.7203 204.572 96.7139 204.561 96.7081 204.551Z" fill="#6AC8FF"/>
<path d="M370.892 137.914H229.021V63.0772C229.021 53.5095 236.855 45.6814 246.429 45.6814H353.484C363.059 45.6814 370.892 53.5095 370.892 63.0772V137.914Z" fill="#FFA47F"/>
<path d="M129.173 454.588H-1V341.515H83.9133C108.806 341.515 129.173 361.868 129.173 386.744V454.588Z" fill="#1D3F72"/>
<path d="M65.5311 421.292H94.1837C94.1837 421.292 101.356 423.206 102.226 430.86L109.398 454.727H65.5311V421.292Z" fill="#C99885"/>
<path d="M55.0867 421.292H83.7393C83.7393 421.292 90.9111 423.206 91.7815 430.86L98.9534 454.136H55.0867V421.292Z" fill="#F3DDB6"/>
<path d="M-1 438.341V381.944H40.917V437.715L-1 438.341Z" fill="#F3DDB6"/>
<path d="M-1 381.943V421.118H15.537L5.78889 391.615C5.78889 391.615 1.95926 381.699 8.74815 381.943H-1Z" fill="#E1AB91"/>
<path d="M44.8511 338.906C44.8511 338.906 38.7237 343.359 39.803 350.804C39.803 350.804 39.7682 352.022 40.743 354.179C50.3519 354.631 59.7171 341.55 59.7171 341.55C62.9897 345.934 64.8697 347.395 65.9489 347.812C65.9141 345.968 65.1482 335.705 51.8141 337.305C51.8141 337.305 52.1971 325.998 39.246 330.416C39.246 330.416 32.6311 332.887 30.0897 340.263C30.0897 340.263 28.0356 349.656 34.6156 359.224C34.6156 359.224 38.4452 365.591 32.2482 366.948C32.2482 366.948 42.9015 370.949 45.443 363.225L47.0097 360.302" fill="#030330"/>
<path d="M33.1185 376.376C35.2422 374.95 43.6674 373.976 43.6674 373.976L46.3133 361.485C45.06 360.268 44.0504 359.12 43.2148 358.076C41.9615 358.424 40.3948 357.971 39.2111 356.823C37.54 355.223 37.1919 352.892 38.4452 351.57C39.6985 350.248 42.0659 350.456 43.737 352.057C44.2244 352.509 44.6074 353.031 44.8511 353.588C52.8585 351.118 59.717 341.55 59.717 341.55C61.2489 343.603 62.4674 345.029 63.4422 346.003C63.5119 347.012 63.6511 350.074 63.4074 353.205C62.7459 353.727 62.3281 354.562 62.363 355.466C62.3978 356.058 62.6067 356.58 62.92 356.997C62.537 358.876 61.9452 360.476 61.0052 361.346C61.0052 361.346 59.2993 364.756 55.7481 364.791C55.2607 364.721 54.2511 364.686 54.2511 364.686L53.1022 375.785C60.4133 376.55 62.3281 380.621 62.3281 380.621C60.9704 394.538 44.5726 392.415 44.5726 392.415C36.1126 389.249 30.96 377.803 33.1185 376.376Z" fill="#FFD0B6"/>
<path d="M50.3867 357.624C51.9057 357.624 53.137 356.393 53.137 354.875C53.137 353.357 51.9057 352.126 50.3867 352.126C48.8677 352.126 47.6363 353.357 47.6363 354.875C47.6363 356.393 48.8677 357.624 50.3867 357.624Z" fill="#F8AD80"/>
<path d="M62.4326 355.466C62.3629 354.005 63.4422 352.753 64.8 352.683C65.1829 352.648 65.5659 352.753 65.9141 352.927C65.7052 355.71 65.1829 357.276 64.9044 358.006C63.5815 358.006 62.4674 356.893 62.4326 355.466Z" fill="#F8AD80"/>
<path d="M62.4326 355.467C62.3978 354.527 62.8156 353.692 63.4771 353.205C63.3726 354.492 63.2334 355.814 62.9897 357.032C62.6415 356.58 62.4326 356.058 62.4326 355.467Z" fill="#F8AD80"/>
<path d="M61.0748 361.346C62.0148 360.511 62.6067 358.876 62.9896 356.997C63.4422 357.589 64.1385 358.006 64.9393 358.006C64.8 358.319 64.7304 358.493 64.7304 358.493C63.2682 365.139 57.8719 365.069 55.8526 364.791C59.3341 364.721 61.0748 361.346 61.0748 361.346Z" fill="#FBBC97"/>
<path d="M65.9489 347.812C65.9489 347.986 65.9489 348.091 65.9489 348.091C66.0185 350.004 65.9837 351.605 65.8793 352.927C65.5311 352.753 65.1481 352.683 64.7652 352.683C64.2778 352.718 63.7904 352.892 63.4074 353.17C63.6163 350.004 63.477 346.977 63.4422 345.968C64.5911 347.082 65.3919 347.569 65.9489 347.812Z" fill="#FBBC97"/>
<path d="M54.2953 350.65C53.7958 350.673 53.4112 351.142 53.4361 351.699C53.4611 352.256 53.8862 352.689 54.3856 352.666C54.885 352.644 55.2696 352.175 55.2447 351.618C55.2198 351.061 54.7947 350.628 54.2953 350.65Z" fill="#030330"/>
<path d="M63.6751 350.536C63.1757 350.559 62.791 351.028 62.816 351.585C62.8409 352.141 63.266 352.575 63.7654 352.552C64.2648 352.53 64.6495 352.061 64.6245 351.504C64.5996 350.947 64.1745 350.514 63.6751 350.536Z" fill="#030330"/>
<path d="M59.4733 350.7C59.4733 350.7 58.9859 353.066 60.7267 353.936C60.7267 353.936 61.2489 354.353 60.7615 354.736C60.7615 354.736 59.543 355.049 59.5778 355.223C59.5778 355.223 58.8815 355.153 58.9163 354.875C58.9859 354.562 58.9859 354.562 58.9859 354.562C58.9859 354.562 59.1252 354.11 59.9259 354.423C59.9259 354.423 60.4133 353.901 59.2993 353.344C59.2993 353.344 58.9163 352.892 58.777 351.744C58.8119 351.744 58.6378 349.656 59.4733 350.7Z" fill="#030330"/>
<path d="M57.837 357.867C57.837 357.867 59.0207 357.31 57.8022 357.137C57.8022 357.137 56.9667 357.832 55.017 356.267C55.017 356.267 54.3555 355.71 54.4252 356.58C54.4252 356.58 55.783 358.006 57.837 357.867Z" fill="#030330"/>
<path d="M43.18 356.893C43.18 356.893 42.9711 357.623 42.1704 356.928C42.1704 356.928 42.1007 355.292 40.36 356.127C40.36 356.127 39.4896 355.501 40.3252 355.153C40.3252 355.153 42.5185 354.91 43.18 356.893Z" fill="#030330"/>
<path d="M54.3207 364.547C54.3207 364.547 52.1274 364.304 50.1082 363.086C50.1082 363.086 50.2822 365.695 54.077 366.913L54.3207 364.547Z" fill="#030330"/>
<path d="M47.1489 429.886C49.5859 431.208 52.2667 433.4 53.5896 434.548C52.963 436.357 51.1178 441.367 49.6904 442.968C39.9422 439.558 33.4667 436.462 29.1496 433.922C28.5926 433.574 28.0356 433.261 27.5482 432.948C21.0726 428.807 20.5852 426.268 20.5852 426.268C16.8252 411.272 19.2622 395.929 19.2622 395.929C20.3763 371.575 43.9807 371.54 43.9807 371.54C49.7252 377.211 53.4504 373.315 53.4504 373.315C64.8348 373.906 67.7593 383.022 67.7593 383.022C69.3608 389.11 73.6778 392.659 73.6778 392.659C75.4882 387.823 76.7763 384.97 77.9948 382.743C78.9696 383.439 82.2074 384.831 88.7178 384.935C85.5497 406.541 80.2926 411.933 80.2926 411.933C77.7859 414.021 72.32 412.594 72.32 412.594L63.4422 408.907L63.3726 412.038C63.0941 417.187 61.8059 418.509 61.8059 418.509C59.5778 423.728 61.0748 428.39 61.0748 428.39C61.0748 428.39 60.5874 433.087 72.4593 432.565L82.2074 432.321C82.2074 432.321 94.9497 433.852 97.0385 438.723C97.0385 438.723 100.276 438.862 100.555 454.762H64.0689L32.283 454.832C32.283 454.832 19.6452 450.97 26.9215 436.635L28.3837 433.991" fill="#8080BF"/>
<path d="M47.0445 429.538C44.5378 427.833 41.9963 426.129 39.4896 424.424C37.1919 422.858 34.7896 421.258 32.0044 420.805C29.2193 420.353 26.0511 421.432 24.9022 424.006C25.0763 424.145 25.3548 424.006 25.3896 423.797C25.4593 423.589 25.3896 423.345 25.3896 423.136C25.3896 422.545 25.7726 422.058 26.1904 421.675C27.8963 420.11 30.4378 419.483 32.6659 420.144C33.1881 420.284 33.7104 420.527 34.1978 420.736C37.4007 422.232 40.2556 424.424 43.0756 426.581C44.2941 427.485 45.4778 428.425 46.6963 429.329" fill="#6F6FAD"/>
<path d="M32.84 418.37C32.0741 417.918 31.1341 417.883 30.2289 417.883C28.5578 417.848 26.817 417.813 25.32 418.579C24.38 419.066 23.5793 419.831 22.9178 420.666C22.6741 420.944 22.4652 421.327 22.5696 421.675C23.1267 420.979 23.8926 420.492 24.6585 420.04C25.877 419.275 27.1304 418.509 28.523 418.3C30.3681 417.987 32.2133 418.648 33.8844 419.414C33.1185 419.24 32.3178 419.101 31.5519 418.996C31.0296 418.927 30.403 418.927 30.0896 419.379C30.8207 419.414 31.5518 419.483 32.3178 419.518C32.457 419.518 32.5963 419.553 32.7356 419.588C32.8748 419.657 32.9793 419.762 33.1185 419.866C33.6059 420.249 34.3022 420.353 34.8941 420.144C34.8244 419.901 34.6504 419.657 34.4763 419.483C34.0237 418.961 33.4667 418.474 32.8052 418.335" fill="#6F6FAD"/>
<path d="M31.6911 404.453C32.0392 409.15 31.8652 413.847 31.6563 418.544C32.5963 413.116 33.0837 407.584 33.0489 402.053C33.0489 400.974 32.84 399.687 31.8303 399.339C31.4126 400.974 31.3429 402.714 31.6215 404.384" fill="#6F6FAD"/>
<path d="M79.1785 409.533C79.7356 409.324 79.4222 409.463 79.9444 409.359C80.4667 409.254 81.1282 409.602 81.1282 410.159C81.1282 410.368 81.0585 410.576 80.9541 410.75C80.1185 412.316 78.3778 413.325 76.6022 413.255C76.4978 413.255 76.3585 413.255 76.2889 413.186C76.1844 413.116 76.1148 413.012 76.08 412.907C75.697 412.142 76.08 411.168 76.7415 410.611C77.3681 410.055 78.2385 409.811 79.0393 409.568L79.1785 409.533Z" fill="#6F6FAD"/>
<path d="M21.943 425.328C23.3008 425.467 24.2756 426.685 25.0763 427.798C25.32 428.146 25.5637 428.494 25.5289 428.912C25.4593 429.538 24.763 429.886 24.1363 429.782C23.5445 429.677 23.0222 429.26 22.5696 428.877C21.7689 428.181 20.9333 427.311 20.9333 426.268C20.9333 426.128 20.9682 425.954 21.0726 425.85C21.1771 425.781 21.2815 425.781 21.4208 425.781C21.9082 425.781 22.3608 425.746 22.8482 425.746" fill="#6F6FAD"/>
<path d="M73.643 392.554C72.7726 394.433 72.32 396.555 72.4245 398.643C72.4593 399.896 72.8771 401.392 74.0956 401.774C73.5734 399.861 73.3297 397.843 73.3645 395.86C73.3645 395.373 73.4341 394.816 73.7823 394.503C73.4689 395.72 74.3741 396.903 75.2097 397.843C76.1845 398.956 77.1941 400.035 78.1689 401.148C78.2734 400.591 77.8556 400.069 77.5074 399.617C76.1845 397.947 75.1052 396.068 74.3741 394.085C74.2348 394.468 74.5482 394.92 74.966 395.059C75.3837 395.199 75.8015 395.199 76.2193 395.303C76.7763 395.442 77.2985 395.755 77.6467 396.208C77.8208 395.929 77.6815 395.547 77.4726 395.303C77.2289 395.059 76.9156 394.92 76.6371 394.781C75.5926 394.259 74.6874 393.389 74.4089 392.241C74.0956 392.172 73.7126 392.38 73.643 392.694" fill="#6F6FAD"/>
<path d="M83.1484 384.919C86.1055 385.525 88.6031 385.528 88.7267 384.926C88.8504 384.323 86.5534 383.344 83.5962 382.737C80.6391 382.131 78.1416 382.128 78.0179 382.73C77.8942 383.332 80.1912 384.312 83.1484 384.919Z" fill="#6F6FAD"/>
<path d="M82.4163 372.41L89.0659 373.488C89.4489 373.558 89.797 373.28 89.8666 372.897L91.8859 360.407C91.9555 360.024 91.677 359.676 91.2941 359.607L84.6444 358.528C84.2615 358.459 83.9133 358.737 83.8437 359.12L81.8244 371.61C81.7548 371.992 82.0333 372.34 82.4163 372.41Z" fill="#093170"/>
<path d="M82.9733 371.923L88.6829 372.862C89.0659 372.932 89.4141 372.654 89.4837 372.271L91.3289 360.894C91.3985 360.511 91.12 360.163 90.737 360.094L85.0274 359.154C84.6444 359.085 84.2963 359.363 84.2267 359.746L82.3815 371.123C82.3467 371.505 82.5904 371.888 82.9733 371.923Z" fill="#029CE0"/>
<path d="M90.4237 364.999C89.1356 363.956 87.8474 362.912 86.5593 361.833C86.0022 361.381 85.3756 360.894 84.6445 360.824C84.5052 361.416 84.4008 362.077 84.5748 362.668C84.7489 363.26 85.2363 363.712 85.6889 364.13C86.6985 365.069 87.7082 366.008 88.7178 366.948C89.1008 367.296 89.5185 367.748 89.4489 368.27C89.4489 368.339 89.4141 368.409 89.3445 368.444C89.1704 368.583 88.9615 368.305 88.857 368.061C88.6482 367.678 88.2304 367.435 87.8474 367.191C86.7333 366.565 85.6193 365.939 84.5052 365.312C84.3311 365.208 84.1919 365.139 83.983 365.173C83.7741 365.695 83.5652 366.287 83.7741 366.809C83.9482 367.156 84.2615 367.365 84.5748 367.574C85.9674 368.513 87.3948 369.418 88.7874 370.357C88.9267 370.427 89.0659 370.531 89.2052 370.496C89.3793 370.462 89.4489 370.253 89.5185 370.044C89.9363 368.409 90.2148 366.739 90.3541 365.034" fill="#48B8E9"/>
<path d="M82.9733 372.48C83.217 373.28 83.7044 373.976 83.8437 374.811C84.0178 375.82 81.2674 383.404 80.9193 384.378C82.5904 385.039 84.6096 385.352 86.3852 385.387C86.5244 383.717 89.5533 375.715 90.2844 374.219C92.3037 370.114 93.1044 365.452 92.617 360.929C92.617 360.929 92.4778 360.268 92.0948 360.268C91.677 360.268 91.3637 360.72 91.2941 361.137C91.2244 361.555 91.2941 361.972 91.3289 362.39C91.3985 363.19 91.3637 364.025 91.1896 364.791C90.7718 364.269 90.1452 364.304 90.1104 364.86C90.1452 365.904 90.4933 366.565 90.5281 367.609C90.2148 367.644 89.5533 367.365 89.3096 368.131C89.3792 369.209 89.7622 370.531 90.0407 371.819L89.9363 372.48C89.9363 372.48 89.8666 373.489 88.5785 373.454L82.9733 372.48Z" fill="#FFD0B6"/>
<path d="M83.1126 363.677C82.7296 363.295 82.1726 363.051 81.6504 363.26C81.2674 363.886 81.3022 364.686 81.5111 365.382C81.5111 365.382 82.5207 367.296 82.277 368.792L83.1126 363.677Z" fill="#FFD0B6"/>
<path d="M51.1178 454.866C50.1778 453.231 49.203 451.561 48.263 449.926C47.3926 448.43 46.5222 446.934 45.8956 445.333C45.1645 443.489 44.7467 441.506 44.3289 439.558C43.2845 434.687 42.2748 429.781 41.2304 424.911C41.1608 424.493 41.3696 423.867 41.7178 424.076" fill="#6F6FAD"/>
<path d="M42.4489 424.11C44.9556 426.511 48.7504 426.72 52.2319 426.789C55.0867 426.859 57.9067 426.894 60.7615 426.963C61.2837 429.781 61.6319 433.121 59.543 435.105C58.2548 436.322 56.2356 436.809 55.5045 438.41C54.9474 439.627 55.3652 441.054 55.8178 442.306C57.4193 446.829 59.2993 450.343 61.3882 454.657H51.1178" fill="#6F6FAD"/>
<path d="M44.12 427.555C44.12 427.555 62.4326 429.607 63.0941 429.538C64.6259 429.399 67.5155 429.19 69.6392 429.294C69.6392 429.294 69.7437 429.294 69.883 429.329C70.5444 429.468 72.4244 430.025 73.9911 431.66C73.9911 431.66 75.0704 432.634 75.5926 433.261C75.5926 433.261 76.1844 434.687 74.6874 433.956L72.6333 432.217C72.6333 432.217 71.0667 431.521 70.2659 431.765C70.2659 431.765 72.8074 432.947 74.757 435.279C74.757 435.279 75.2793 437.331 73.6081 436.044C73.6081 436.044 71.2059 433.435 69.2911 433.156C69.2911 433.156 71.2407 434.304 72.1459 436.114C73.0511 437.923 71.3452 436.601 71.3452 436.601C71.3452 436.601 69.1867 433.887 66.68 433.643C66.68 433.643 67.8985 434.165 69.0474 435.592C70.1963 437.018 68.4904 436.253 68.4904 436.253C68.4904 436.253 67.8637 435.696 65.9489 435C65.9489 435 62.537 435.487 61.1444 434.444C61.1444 434.444 61.0052 434.165 59.2644 433.991C59.2644 433.991 50.1778 433.922 46.4178 434.409L44.12 427.555Z" fill="#FDD1B6"/>
<path d="M9.44446 421.779H38.0971C38.0971 421.779 45.2689 423.693 46.1393 431.347L53.3111 454.623H9.44446V421.779Z" fill="#E1AB91"/>
<path d="M-1 421.779H27.6526C27.6526 421.779 34.8244 423.693 35.6948 431.347L42.8667 454.623H-1V421.779Z" fill="#F3DDB6"/>
<path d="M97.9785 436.427H48.6807V439.941H97.9785V436.427Z" fill="#6F6FAD"/>
<path d="M68.6992 434.896L49.5511 434.061V438.793H68.6992V434.479V434.896Z" fill="#B7A3D6"/>
<path d="M68.6992 434.478V433.991H49.5511V434.061L68.6992 434.896V434.478Z" fill="#E0BFDD"/>
<path opacity="0.08" d="M49.5511 433.991L49.6207 438.34L55.574 434.583V433.991H49.5511Z" fill="#605860"/>
<path opacity="0.1" d="M63.8948 438.514H65.8444L66.8889 433.748H64.9044L63.8948 438.514Z" fill="#605860"/>
<path opacity="0.11" d="M61.7363 435.905H59.9955V436.392H61.7363V435.905Z" fill="#605860"/>
<path opacity="0.11" d="M62.5718 436.566C62.8026 436.566 62.9896 436.379 62.9896 436.148C62.9896 435.918 62.8026 435.731 62.5718 435.731C62.3411 435.731 62.1541 435.918 62.1541 436.148C62.1541 436.379 62.3411 436.566 62.5718 436.566Z" fill="#605860"/>
<path d="M65.1829 438.793L72.0066 405.74H108.841L109.641 407.48L103.897 438.793H65.1829Z" fill="#A58FD1"/>
<path d="M109.467 407.758H73.5037L67.7941 436.114H104.315L109.467 407.758Z" fill="#DEBDDB"/>
<path d="M103.827 438.792L104.315 436.114H67.794L67.2718 438.792H103.827Z" fill="#F2D1F0"/>
<path opacity="0.08" d="M109.641 407.48L108.701 412.316L102.713 407.341V405.74H108.841L109.641 407.48Z" fill="#383538"/>
<path d="M178.47 528.625C178.47 528.625 173.77 493.52 175.964 471.114H265.821C265.821 471.114 273.515 485.378 273.167 528.625H178.47Z" fill="#39A08F"/>
<path d="M269.337 483.013H175.372V470.731H266.587L269.337 483.013Z" fill="#1A7B68"/>
<path d="M372.563 316.465H335.311V312.777C335.311 311.107 336.669 309.75 338.375 309.75H369.534C371.205 309.75 372.598 311.107 372.598 312.777V316.465H372.563Z" fill="white"/>
<path d="M368.524 309.715H339.384V307.489C339.384 305.819 340.742 304.427 342.448 304.427H365.496C367.167 304.427 368.559 305.784 368.559 307.489V309.715H368.524Z" fill="white"/>
<path d="M368.49 307.802H339.35V309.715H368.49V307.802Z" fill="#D2DBE9"/>
<path d="M343.319 362.981H364.66L370.021 319.735H337.957L343.319 362.981Z" fill="#E54257"/>
<path d="M337.539 316.465L337.957 319.735H370.021L370.439 316.465H337.539Z" fill="#CD374F"/>
<path d="M356.966 344.159H350.978C348.158 344.159 345.86 341.863 345.86 339.045V333.061C345.86 330.242 348.158 327.946 350.978 327.946H356.966C359.786 327.946 362.084 330.242 362.084 333.061V339.045C362.084 341.828 359.786 344.159 356.966 344.159Z" fill="#EA6077"/>
<path d="M342.274 352.787L343.11 361.138C343.11 361.138 341.578 359.328 339.35 362.146L337.539 367.191C324.066 414.891 309.583 432.878 309.583 432.878C309.583 432.878 301.576 440.984 293.255 435.244C284.934 429.503 276.265 414.786 276.265 414.786L252.521 379.09L277.553 369.627L287.127 382.674C292.593 392.415 299.487 405.392 299.487 405.392L332.909 346.908L333.71 345.76C333.71 345.76 334.476 342.454 334.476 339.741L336.216 329.338C336.216 329.338 336.425 326.833 338.549 325.476C338.549 325.476 341.647 321.997 342.727 320.64C342.727 320.64 346.278 317.161 346.487 316.395C346.487 316.395 349.133 314.865 347.914 320.64C347.914 320.64 344.015 326.485 342.762 331.008C342.762 331.008 342.483 337.618 341.404 339.358L342.344 351.848L342.274 352.787Z" fill="#FFD0B6"/>
<path d="M370.822 332.504C370.822 332.504 369.917 329.825 367.41 328.19L363.337 324.015C363.337 324.015 358.95 318.657 361.353 326.102L368.176 334.557L363.964 332.678L358.045 332.365C358.045 332.365 355.156 333.408 358.08 334.905L362.467 335.809L367.515 339.567L363.407 338.488L360.169 338.349C360.169 338.349 354.111 339.08 359.856 341.341L363.929 342.246C363.929 342.246 365.983 344.124 366.714 344.994C367.445 345.899 364.556 346.107 364.556 346.107H360.482C360.482 346.107 354.32 346.56 360.482 348.926C360.482 348.926 363.72 349.239 365.287 349.656C365.287 349.656 366.401 350.039 366.018 351.674L365.53 355.571C365.53 355.571 367.515 354.283 369.082 349.656C369.082 349.656 370.37 346.073 370.787 342.628C370.857 342.663 370.996 334.905 370.822 332.504Z" fill="#FFD0B6"/>
<path d="M135.927 355.432H103.34C101.286 355.432 99.6148 353.762 99.6148 351.709L80.9889 295.242C80.9889 293.189 82.66 291.519 84.7141 291.519H117.301C119.355 291.519 120.156 292.841 121.026 295.242L139.652 351.709C139.652 353.762 137.981 355.432 135.927 355.432Z" fill="#B52C48"/>
<path d="M133.977 355.432H101.39C99.3363 355.432 97.6652 353.762 97.6652 351.709L79.0741 295.242C79.0741 293.189 80.7452 291.519 82.7993 291.519H115.386C117.44 291.519 118.276 292.911 119.111 295.242L137.737 351.709C137.702 353.762 136.031 355.432 133.977 355.432Z" fill="#E54257"/>
<path d="M96.5163 305.053H87.0119C86.6637 305.053 86.3504 304.775 86.3504 304.392L83.2867 295.903C83.2867 295.555 83.5652 295.242 83.9482 295.242H93.4526C93.8007 295.242 94.1141 295.52 94.1141 295.903L97.1778 304.392C97.1778 304.74 96.8645 305.053 96.5163 305.053Z" fill="#B52B47"/>
<path d="M221.258 310.829L233.06 300.774C233.06 300.774 242.669 313.334 262.722 317.161C262.722 317.161 278.424 319.318 268.641 334.209C268.641 334.209 246.359 349.169 223.451 345.655L221.258 310.829Z" fill="#721646"/>
<path d="M191.979 305.262C191.979 305.262 181.047 321.371 169.453 327.946C169.453 327.946 165.972 328.468 167.121 336.505C167.121 336.505 166.494 342.698 199.812 346.316L208.585 348.021L211.893 310.864L191.979 305.262Z" fill="#721646"/>
<path d="M238.909 275.654C238.909 275.654 246.359 286.266 239.814 294.755C239.814 294.755 237.621 297.33 235.149 301.4C215.861 300.217 197.27 266.574 197.27 266.574C190.725 273.706 188.253 284.178 186.025 284.735C186.478 281.012 177.461 275.933 196.017 264.104C196.017 264.104 189.367 252.657 205.8 256.101C205.835 256.101 227.733 257.041 238.909 275.654Z" fill="#721646"/>
<path d="M246.568 342.872C240.615 340.471 225.053 340.332 225.053 340.332L222.476 314.865C225.227 312.673 227.49 310.62 229.37 308.706C231.807 309.646 235.01 309.124 237.656 307.106C241.346 304.288 242.53 299.661 240.301 296.773C238.073 293.885 233.304 293.781 229.613 296.599C228.534 297.399 227.699 298.373 227.072 299.417C211.614 292.737 197.27 266.609 197.27 266.609C193.963 268.452 191.317 271.375 190.725 272.28C190.377 274.297 190.307 288.284 190.064 294.616C191.282 295.764 191.909 297.538 191.63 299.382C191.456 300.53 190.934 301.574 190.203 302.34C190.551 306.167 191.387 309.507 193.058 311.385C193.058 311.385 195.773 318.518 202.806 319.353C203.781 319.318 205.835 319.457 205.835 319.457L205.765 341.063C191.039 341.028 184.215 344.542 184.215 344.542C183.936 372.619 219.239 376.863 219.239 376.863C236.89 372.375 251.338 344.785 246.568 342.872Z" fill="#FFD0B6"/>
<path d="M215.757 306.271C218.795 306.271 221.258 303.81 221.258 300.774C221.258 297.738 218.795 295.277 215.757 295.277C212.719 295.277 210.256 297.738 210.256 300.774C210.256 303.81 212.719 306.271 215.757 306.271Z" fill="#F8AD80"/>
<path d="M191.63 299.347C192.083 296.425 190.238 293.746 187.487 293.328C186.687 293.224 185.921 293.294 185.19 293.537C185.016 299.139 185.677 302.409 186.095 303.905C188.776 304.149 191.213 302.166 191.63 299.347Z" fill="#F8AD80"/>
<path d="M191.63 299.347C191.909 297.504 191.282 295.729 190.064 294.581C189.959 297.19 189.994 299.835 190.203 302.305C190.934 301.505 191.456 300.496 191.63 299.347Z" fill="#F8AD80"/>
<path d="M193.058 311.351C191.387 309.472 190.551 306.132 190.203 302.305C189.159 303.418 187.696 304.044 186.13 303.905C186.339 304.566 186.478 304.879 186.478 304.879C187.975 318.448 198.733 319.457 202.841 319.353C195.773 318.483 193.058 311.351 193.058 311.351Z" fill="#FBBC97"/>
<path d="M186.2 283.274C186.165 283.656 186.13 283.83 186.13 283.83C185.538 287.623 185.26 290.824 185.19 293.503C185.921 293.259 186.687 293.155 187.488 293.294C188.497 293.433 189.368 293.92 190.064 294.581C190.308 288.249 191.004 273.462 191.352 271.41C187.209 276.976 187.105 279.864 186.2 283.274Z" fill="#FBBC97"/>
<path d="M208.291 295.532C209.261 295.681 210.186 294.893 210.358 293.772C210.529 292.651 209.883 291.623 208.913 291.474C207.944 291.326 207.019 292.114 206.847 293.235C206.675 294.355 207.322 295.384 208.291 295.532Z" fill="#030330"/>
<path d="M189.594 293.273C190.563 293.422 191.488 292.634 191.66 291.513C191.832 290.392 191.185 289.364 190.216 289.215C189.246 289.067 188.321 289.855 188.15 290.976C187.978 292.096 188.624 293.125 189.594 293.273Z" fill="#030330"/>
<path d="M198.489 290.476C198.489 290.476 198.942 295.312 195.321 296.669C195.321 296.669 194.172 297.399 195.077 298.269C195.077 298.269 197.444 299.139 197.305 299.522C197.305 299.522 198.733 299.556 198.663 298.965C198.593 298.373 198.593 298.373 198.593 298.373C198.593 298.373 198.419 297.469 196.748 297.852C196.748 297.852 195.878 296.703 198.245 295.834C198.245 295.834 199.15 295.033 199.638 292.737C199.673 292.737 200.439 288.527 198.489 290.476Z" fill="#030330"/>
<path d="M200.264 305.123C200.264 305.123 198.071 303.731 200.508 303.662C200.508 303.662 202.04 305.227 206.218 302.514C206.218 302.514 207.68 301.539 207.332 303.244C207.367 303.279 204.303 305.819 200.264 305.123Z" fill="#030330"/>
<path d="M229.718 306.306C229.718 306.306 229.996 307.837 231.737 306.619C231.737 306.619 232.224 303.383 235.497 305.366C235.497 305.366 237.342 304.288 235.776 303.453C235.81 303.453 231.459 302.514 229.718 306.306Z" fill="#030330"/>
<path d="M205.835 319.422C205.835 319.422 210.291 319.805 214.573 317.787C214.573 317.787 213.703 322.936 205.87 324.537L205.835 319.422Z" fill="#030330"/>
<path d="M257.441 274.984C266.857 269.884 271.927 261.025 268.767 255.196C265.606 249.368 255.41 248.778 245.994 253.877C236.578 258.977 231.507 267.836 234.668 273.665C237.829 279.493 248.024 280.083 257.441 274.984Z" fill="#721646"/>
<path d="M111.521 354.771C111.139 351.431 110.129 348.16 108.632 345.168C107.657 343.255 106.473 341.445 105.881 339.393C104.698 335.427 105.951 330.973 108.632 327.877C109.537 326.798 110.686 325.685 110.581 324.293C108.562 323.319 106.021 323.945 104.21 325.302C102.4 326.624 101.147 328.573 99.9281 330.486C98.7096 332.4 97.4563 334.313 95.6807 335.705C94.6711 329.234 95.5415 322.484 98.1526 316.5C98.4659 315.804 98.7792 314.899 98.2918 314.308C97.8044 313.717 96.8644 313.856 96.203 314.238C94.2881 315.317 93.5222 317.683 93.1044 319.84C92.6866 321.997 92.3733 324.363 90.8763 325.963C89.4141 323.806 89.6229 320.988 89.8318 318.379C90.0407 316.221 90.2496 314.064 90.4237 311.907C90.5281 310.759 90.6326 309.611 90.4237 308.463C90.2148 307.35 89.6229 306.236 88.6133 305.645C88.3696 305.506 88.0563 305.401 87.7778 305.471C87.2904 305.61 87.1163 306.201 87.0466 306.723C86.3852 310.864 85.6889 315.039 85.0274 319.179C84.7489 320.918 84.4704 322.693 84.6096 324.432C84.7837 326.694 85.6192 328.886 86.5941 330.938C90.0755 338.21 95.437 344.577 102.052 349.204C102.887 349.795 103.793 350.387 104.384 351.222C105.533 352.822 105.742 355.362 107.587 355.988C108.075 356.162 108.597 355.014 109.119 354.945C110.129 354.84 110.373 355.745 111.313 355.327" fill="#B52B47"/>
<path d="M83.6348 333.617C83.6348 333.617 82.4859 317.404 79.9792 312.986C79.9792 312.986 75.7318 301.226 82.8689 309.889L87.1163 322.623L83.6348 333.617Z" fill="#FBBC97"/>
<path d="M138.956 412.072C138.956 412.072 142.576 407.48 152.324 389.527L155.736 382.639L178.331 394.816L160.993 422.023C160.993 422.023 151.001 435.105 142.472 439.593C133.942 444.081 127.293 435.279 127.293 435.279C127.293 435.279 119.633 418.161 100.207 365.486C100.207 365.486 94.8452 356.928 90.0059 351.918C90.0059 351.918 87.8822 339.184 83.6348 333.582V318.344C83.6348 318.344 85.1667 310.585 84.7837 306.271C84.4007 301.957 88.2652 304.149 88.6482 308.324L88.2652 317.752L87.8822 332.052L91.5378 319.318C91.5378 319.318 91.9208 316.221 94.6363 313.89C97.3519 311.559 99.8585 312.36 96.76 316.604L94.4274 321.127L93.2785 330.869L94.0445 336.922L98.6748 330.103C98.6748 330.103 100.416 326.276 105.255 323.458C110.094 320.64 112.601 323.841 107.761 326.589C107.761 326.589 104.489 328.19 103.131 334.174C103.131 334.174 102.365 338.732 103.131 340.993C103.131 340.993 112.392 352.3 111.243 363.121L138.956 412.072Z" fill="#FFD0B6"/>
<path d="M222.65 528.068L214.434 502.67C214.434 502.67 213.32 501.87 211.231 499.4C209.142 496.929 212.972 498.843 212.972 498.843L216.001 501.591L224.252 528.068H222.65Z" fill="#1A7B68"/>
<path d="M173.928 401.031L152.502 389.208L149.894 393.929L171.319 405.752L173.928 401.031Z" fill="#F8AD80"/>
<path d="M290.296 388.136L267.353 401.252L262.339 393.946L287.232 382.778L290.296 388.136Z" fill="#F8AD80"/>
<path d="M233.06 340.193C233.06 340.193 267.422 330.73 285.178 366.983L292.141 379.334L264.498 394.711L269.302 477.098C269.302 477.098 235.776 475.185 173.248 478.142V401.844L143.412 384.1L159.879 358.354C159.879 358.354 170.985 340.924 195.495 340.924C195.495 340.924 196.365 358.702 209.386 359.815C209.421 359.815 229.683 361.311 233.06 340.193Z" fill="#CFDDFF"/>
<path d="M143.69 519.718H127.85C130.252 519.718 132.236 521.701 132.236 524.102C132.236 526.502 130.252 528.485 127.85 528.485H143.69C146.093 528.485 148.077 526.502 148.077 524.102C148.077 521.666 146.127 519.718 143.69 519.718Z" fill="#E47954"/>
<path d="M93.8007 519.72H84.54V520.937H93.8007V519.72Z" fill="#F3A36A"/>
<path d="M93.8007 527.233H84.54V528.451H93.8007V527.233Z" fill="#F3A36A"/>
<path d="M132.271 524.067C132.271 521.666 130.287 519.683 127.884 519.683H93.8007V520.901H126.666C128.407 520.901 129.834 522.327 129.834 524.067C129.834 525.806 128.407 527.233 126.666 527.233H93.8007V528.451H127.884C130.287 528.451 132.271 526.502 132.271 524.067Z" fill="#F3A36A"/>
<path d="M126.074 527.233C128.128 527.233 129.799 525.806 129.799 524.067C129.799 522.327 128.128 520.901 126.074 520.901H87.2207V527.233H126.074Z" fill="#F0EDE0"/>
<path d="M126.074 527.233C128.128 527.233 129.799 526.085 129.799 524.693C129.799 523.301 128.128 522.153 126.074 522.153H87.2207V527.268H126.074V527.233Z" fill="#FAF9EF"/>
<path d="M143.69 511.02H127.85C130.252 511.02 132.236 513.003 132.236 515.404C132.236 517.804 130.252 519.787 127.85 519.787H143.69C146.093 519.787 148.077 517.804 148.077 515.404C148.077 512.968 146.127 511.02 143.69 511.02Z" fill="#B52B47"/>
<path d="M93.8007 511.022H84.54V512.24H93.8007V511.022Z" fill="#E54257"/>
<path d="M93.8007 518.535H84.54V519.753H93.8007V518.535Z" fill="#E54257"/>
<path d="M132.271 515.369C132.271 512.968 130.287 510.985 127.884 510.985H93.8007V512.203H126.666C128.407 512.203 129.834 513.629 129.834 515.369C129.834 517.109 128.407 518.535 126.666 518.535H93.8007V519.753H127.884C130.287 519.753 132.271 517.804 132.271 515.369Z" fill="#E54257"/>
<path d="M126.074 518.535C128.128 518.535 129.799 517.109 129.799 515.369C129.799 513.629 128.128 512.203 126.074 512.203H87.2207V518.535H126.074Z" fill="#F0EDE0"/>
<path d="M126.074 518.535C128.128 518.535 129.799 517.387 129.799 515.995C129.799 514.604 128.128 513.455 126.074 513.455H87.2207V518.57H126.074V518.535Z" fill="#FAF9EF"/>
<path d="M143.69 502.322H127.85C130.252 502.322 132.236 504.305 132.236 506.706C132.236 509.107 130.252 511.09 127.85 511.09H143.69C146.093 511.09 148.077 509.107 148.077 506.706C148.077 504.27 146.127 502.322 143.69 502.322Z" fill="#01603E"/>
<path d="M93.8007 502.324H84.54V503.542H93.8007V502.324Z" fill="#007F54"/>
<path d="M93.8007 509.837H84.54V511.055H93.8007V509.837Z" fill="#007F54"/>
<path d="M132.271 506.671C132.271 504.271 130.287 502.287 127.884 502.287H93.8007V503.505H126.666C128.407 503.505 129.834 504.932 129.834 506.671C129.834 508.411 128.407 509.837 126.666 509.837H93.8007V511.055H127.884C130.287 511.055 132.271 509.107 132.271 506.671Z" fill="#007F54"/>
<path d="M126.074 509.837C128.128 509.837 129.799 508.411 129.799 506.671C129.799 504.932 128.128 503.505 126.074 503.505H87.2207V509.837H126.074Z" fill="#F0EDE0"/>
<path d="M126.074 509.837C128.128 509.837 129.799 508.689 129.799 507.297C129.799 505.906 128.128 504.758 126.074 504.758H87.2207V509.872H126.074V509.837Z" fill="#FAF9EF"/>
<path d="M306.833 52.1875L293.011 53.9271L293.533 62.799L290.122 65.5475C290.122 65.5475 291.653 82.6302 312.786 64.9908L308.016 62.5554L306.833 52.1875Z" fill="#F8AD97"/>
<path d="M276.091 137.914L276.509 124.485C271.635 87.4315 275.325 74.8021 278.11 70.5227C279.538 68.9571 280.478 68.3657 280.478 68.3657C284.377 65.8607 290.191 63.4948 290.191 63.4948L293.394 60.9202C293.046 63.3557 294.752 65.5127 294.752 65.5127L299.452 70.975L303.49 65.7563C308.121 63.4948 307.633 59.2155 307.633 59.2155L312.786 63.0425C316.616 63.0425 324.379 65.0605 324.379 65.0605C341.473 69.3746 343.562 83.2565 343.562 83.2565C343.562 83.2565 347.253 96.3382 348.924 113.456C348.924 113.456 349.516 125.911 345.964 129.355L344.293 137.879H276.091V137.914Z" fill="white"/>
<path d="M285.317 37.5401C286.744 36.9139 288.694 38.236 289.669 40.4626C290.261 41.8195 290.365 43.1764 290.017 44.2201L286.118 39.6276C285.944 39.4189 285.665 39.4189 285.456 39.558C285.247 39.732 285.247 40.0103 285.387 40.2191L289.286 44.8116C289.356 44.916 289.495 44.9855 289.599 44.9855C289.39 45.2639 289.147 45.4726 288.833 45.6118C287.406 46.238 285.456 44.916 284.482 42.6893C283.541 40.4626 283.89 38.1664 285.317 37.5401Z" fill="#F7AA94"/>
<path d="M289.286 44.8114L285.387 40.219C285.213 40.0102 285.247 39.7319 285.456 39.5579C285.665 39.384 285.944 39.4187 286.118 39.6275L290.017 44.22C290.191 44.4287 290.156 44.7071 289.947 44.881C289.843 44.9506 289.739 44.9854 289.599 44.9854C289.495 44.9506 289.39 44.9158 289.286 44.8114Z" fill="#DC8E81"/>
<path d="M311.045 35.9398C309.548 35.4875 307.773 37.0184 307.076 39.3494C306.659 40.7759 306.728 42.1327 307.181 43.1069L310.488 38.0621C310.627 37.8534 310.941 37.7838 311.15 37.9229C311.359 38.0621 311.428 38.3752 311.289 38.584L307.982 43.6288C307.912 43.7331 307.807 43.8027 307.668 43.8375C307.912 44.0811 308.19 44.2898 308.504 44.3942C310.001 44.8465 311.776 43.3156 312.473 40.9846C313.204 38.6188 312.542 36.3921 311.045 35.9398Z" fill="#F7AA94"/>
<path d="M308.016 43.6288L311.324 38.584C311.463 38.3753 311.393 38.0622 311.185 37.923C310.976 37.7838 310.662 37.8534 310.523 38.0622L307.216 43.1069C307.076 43.3157 307.146 43.6288 307.355 43.768C307.459 43.8376 307.599 43.8724 307.703 43.8376C307.807 43.8028 307.912 43.7332 308.016 43.6288Z" fill="#DC8E81"/>
<path d="M287.197 41.2281C287.998 50.4479 290.47 57.9977 298.999 57.4062C307.738 56.78 308.852 50.4827 308.852 41.2281C308.852 30.547 303.908 24.4585 297.816 24.4585C291.723 24.4585 286.257 30.2687 287.197 41.2281Z" fill="#FDC8B8"/>
<path d="M307.738 33.3304C307.738 33.3304 305.161 33.6435 304.883 29.6077C304.883 29.6077 297.259 31.9039 290.191 30.8254C290.191 30.8254 288.938 33.8175 287.58 34.0262C287.58 34.0262 286.884 32.1823 288.799 30.5471C288.799 30.5471 282.741 29.7468 281.522 27.0331C281.522 27.0331 293.116 17.5698 303.63 26.6156C303.63 26.6156 302.098 25.8154 301.262 23.38C301.262 23.38 304.709 22.3362 305.997 27.1723L307.738 25.4327C307.738 25.4327 308.887 26.8591 306.38 28.39C306.38 28.3552 307.25 31.3473 307.738 33.3304Z" fill="#010526"/>
<path d="M303.421 32.8434C303.421 32.8434 302.063 32.2867 300.566 32.8434C299.069 33.4 299.487 32.5998 299.487 32.5998C299.487 32.5998 299.487 31.069 303.421 31.904C305.579 32.3563 303.421 32.8434 303.421 32.8434Z" fill="#010526"/>
<path d="M292.628 33.6434C292.628 33.6434 293.742 33.0868 294.961 33.6434C296.179 34.2001 295.831 33.3999 295.831 33.3999C295.831 33.3999 295.831 31.8691 292.628 32.7041C290.853 33.1563 292.628 33.6434 292.628 33.6434Z" fill="#010526"/>
<path d="M287.719 39.419C287.719 42.0631 289.878 44.2202 292.524 44.2202C295.17 44.2202 297.328 42.0631 297.328 39.419C297.328 39.3494 297.328 39.2798 297.328 39.2102H299.243C299.522 41.6108 301.541 43.4548 304.013 43.4548C306.659 43.4548 308.817 41.2977 308.817 38.6535C308.817 36.0094 306.659 33.8523 304.013 33.8523C301.436 33.8523 299.313 35.905 299.208 38.4448H297.224C296.771 36.2529 294.822 34.5829 292.489 34.5829C289.843 34.6177 287.719 36.74 287.719 39.419ZM300.044 38.6535C300.044 36.4617 301.819 34.6873 304.013 34.6873C306.206 34.6873 307.982 36.4617 307.982 38.6535C307.982 40.8454 306.206 42.6198 304.013 42.6198C301.819 42.6546 300.044 40.8454 300.044 38.6535ZM288.52 39.419C288.52 37.2271 290.296 35.4527 292.489 35.4527C294.682 35.4527 296.458 37.2271 296.458 39.419C296.458 41.6108 294.682 43.3852 292.489 43.3852C290.33 43.3852 288.52 41.6108 288.52 39.419Z" fill="#010526"/>
<path d="M293.116 40.3583C293.75 40.3583 294.264 39.8442 294.264 39.2101C294.264 38.576 293.75 38.062 293.116 38.062C292.481 38.062 291.967 38.576 291.967 39.2101C291.967 39.8442 292.481 40.3583 293.116 40.3583Z" fill="#010526"/>
<path d="M303.664 39.9408C304.299 39.9408 304.813 39.4267 304.813 38.7927C304.813 38.1586 304.299 37.6445 303.664 37.6445C303.03 37.6445 302.516 38.1586 302.516 38.7927C302.516 39.4267 303.03 39.9408 303.664 39.9408Z" fill="#010526"/>
<path d="M298.303 39.4188V44.9507C298.303 44.9507 297.467 44.4984 296.527 43.8026L297.363 39.1753L298.303 39.4188Z" fill="#F99691"/>
<path d="M298.233 39.4188V44.9507C298.233 44.9507 299.069 44.4984 300.009 43.8026L299.173 39.1753L298.233 39.4188Z" fill="#FFAB95"/>
<path d="M303.664 45.4727C303.664 45.4727 301.227 47.6646 298.303 47.1079C295.866 46.6209 298.233 46.3077 298.233 46.3077C298.233 46.3077 300.462 46.6209 302.516 45.1944C304.57 43.8027 303.664 45.4727 303.664 45.4727Z" fill="#F8AD97"/>
<path d="M299.347 53.9619C299.347 53.5444 299.939 53.3356 300.253 53.5792C300.566 53.8227 300.566 54.3446 300.322 54.6577C300.044 54.9708 299.591 55.0404 299.208 54.9708C298.964 54.9013 298.721 54.7621 298.581 54.5533C298.512 54.449 298.477 54.3098 298.442 54.1706C298.373 53.8227 298.407 53.44 298.651 53.1617C298.86 52.8833 299.278 52.7442 299.591 52.9529C299.243 52.8138 298.86 53.0921 298.721 53.4052C298.581 53.7531 298.651 54.1358 298.721 54.4838C298.964 54.5533 299.208 54.6229 299.417 54.6925C299.556 54.7273 299.696 54.7621 299.87 54.7621C300.148 54.7273 300.357 54.3446 300.253 54.1011C300.113 53.8227 299.696 53.7879 299.521 54.0315" fill="#F8AD97"/>
<path d="M303.212 67.7741C304.256 67.0087 305.753 66.9739 306.833 67.6697C307.39 68.0525 307.842 68.5743 308.434 68.957C309.026 69.3397 309.827 69.4789 310.349 69.0266C310.558 68.8179 310.697 68.5395 310.836 68.2612C311.533 66.7304 312.229 65.1647 312.925 63.6339C312.681 64.3297 312.403 65.0604 312.159 65.7562C311.811 66.6956 311.463 67.6697 310.871 68.5047C310.279 69.3397 309.479 70.0008 308.539 70.4183C307.773 68.4352 305.301 67.287 303.316 68.0177" fill="#C7C8C9"/>
<path d="M294.682 66.3129C294.891 66.6608 294.961 66.9043 295.309 67.1131C295.274 67.5306 294.891 67.8437 294.543 68.0524C294.543 68.0524 293.568 67.8785 292.384 69.6877C292.141 70.0704 291.827 71.4968 291.479 71.1837C290.609 70.4531 289.878 67.9133 289.773 66.7999C289.704 66.0693 289.669 64.4341 289.704 63.7035C289.947 65.617 289.669 68.7483 291.619 71.1489C291.827 69.9312 292.245 67.7045 293.116 66.8347C293.464 66.452 293.916 66.1041 294.439 66.0693L294.682 66.3129Z" fill="#C7C8C9"/>
<path d="M276.718 124.484L253.81 136.696C248.344 135.061 243.853 133.809 243.853 133.809L265.368 111.507L268.014 98.1124C269.824 82.0038 275.186 73.9322 278.354 70.4878C275.534 74.7672 271.844 87.3965 276.718 124.484Z" fill="#EAEAEA"/>
<path d="M266.169 110.951C267.562 110.603 269.128 111.02 270.207 111.994C269.267 111.368 268.049 111.124 266.935 111.403C269.233 112.655 271.6 113.977 273.167 116.1C271.426 114.221 269.128 112.899 266.622 112.307C267.353 112.342 268.049 112.934 268.188 113.629C267.387 112.968 266.413 112.586 265.403 112.447C265.159 111.89 265.438 111.159 265.96 110.881" fill="#C6C6C6"/>
<path d="M248.518 129.39C249.91 129.634 251.059 130.608 252.104 131.582C253.044 132.417 253.984 133.252 254.889 134.122C253.844 133.496 252.835 132.765 251.825 132.034C250.641 131.165 249.458 130.295 248.239 129.46" fill="#C6C6C6"/>
<path d="M299.556 116.83C299.556 116.83 305.684 128.416 305.927 134.609C305.927 134.609 318.878 132.139 336.843 133.252C336.843 133.252 349.759 131.86 349.237 121.318C349.237 121.318 344.572 115.995 337.609 109.489C337.609 109.489 333.327 108.828 326.329 108.759C326.329 108.759 322.673 108.759 299.556 116.83Z" fill="#EAEAEA"/>
<path d="M324.797 90.8409C325.145 97.2078 326.294 103.505 328.244 109.663C327.861 110.046 327.13 109.907 326.781 109.489C326.433 109.072 326.329 108.515 326.259 107.993C325.493 102.496 324.693 96.9991 323.927 91.502" fill="#EAEAEA"/>
<path d="M295.483 137.531C292.733 137.323 289.878 136.349 288.172 134.157C286.466 131.965 286.361 128.416 288.52 126.676C289.843 125.598 291.653 125.389 293.359 125.215C301.193 124.485 309.374 123.997 316.65 126.955C318.635 127.755 320.55 128.834 322.638 129.286C324.518 129.703 326.468 129.634 328.383 129.529C334.162 129.286 339.941 129.042 345.721 128.799L344.293 137.879L295.483 137.531Z" fill="#EAEAEA"/>
<path d="M298.651 119.509C298.651 119.509 285.247 120.658 281.94 121.875C281.94 121.875 279.607 122.815 273.863 131.408C273.863 131.408 271.948 134.435 275.499 132.382L277.971 129.634L280.164 127.024L282.497 124.728L281.661 126.294V130.434C281.661 130.434 281.383 131.652 282.079 132.069L283.994 132.208V133.078C283.994 133.078 284.725 133.67 285.978 133.078L286.849 133.322C286.849 133.322 287.406 133.983 292.872 134.261C292.872 134.261 294.787 133.704 293.15 133.183L290.121 132.208C290.121 132.208 288.764 131.652 289.704 129.877C289.704 129.877 290.678 129.738 291.479 129.042C291.479 129.042 296.527 129.46 300.914 126.85C300.914 126.85 302.411 126.155 304.326 126.85V119.475H298.651V119.509Z" fill="#FDC8B8"/>
<path d="M299.382 117.178C299.382 117.178 305.544 127.477 305.684 133.008C305.684 133.008 319.296 130.503 338.061 131.13C338.061 131.13 349.724 129.181 349.376 119.718C349.376 119.718 348.924 113.456 344.119 110.707C344.119 110.707 342.204 109.107 334.893 109.211C334.893 109.211 324.31 108.55 299.382 117.178Z" fill="white"/>
<path d="M314.736 132.174C315.153 128.277 313.9 124.206 311.289 121.249C313.273 121.875 314.144 124.137 314.701 126.12C315.258 128.103 315.745 130.121 316.198 132.139" fill="#EAEAEA"/>
<path d="M272.923 133.566V138.089H299.522V133.113L272.923 134.018V133.566Z" fill="#B7A3D6"/>
<path d="M272.923 134.018L299.522 133.113V133.043H272.923V133.565V134.018Z" fill="#E0BFDD"/>
<path opacity="0.08" d="M291.166 133.043V133.67L299.452 137.601L299.556 133.043H291.166Z" fill="#605860"/>
<path opacity="0.1" d="M278.215 132.765H275.43L276.927 137.81H279.607L278.215 132.765Z" fill="#605860"/>
<path opacity="0.11" d="M285.038 135.061H282.601V135.583H285.038V135.061Z" fill="#605860"/>
<path opacity="0.11" d="M281.418 135.722C281.745 135.722 282.01 135.535 282.01 135.305C282.01 135.074 281.745 134.887 281.418 134.887C281.091 134.887 280.826 135.074 280.826 135.305C280.826 135.535 281.091 135.722 281.418 135.722Z" fill="#605860"/>
<path d="M224.008 138.088L216.001 105.14L217.115 103.331H268.293L277.797 138.088H224.008Z" fill="#A58FD1"/>
<path d="M223.416 135.305H274.176L266.239 105.453H216.279L223.416 135.305Z" fill="#DEBDDB"/>
<path d="M274.907 138.088L274.176 135.305H223.416L224.078 138.088H274.907Z" fill="#F2D1F0"/>
<path opacity="0.08" d="M268.119 103.331H259.171V105.001L267.91 110.22L269.964 108.828L268.119 103.331Z" fill="#383538"/>
<path d="M210.883 78.177C210.396 71.984 215.026 66.5565 221.188 66.0695L222.093 77.3072L210.883 78.177Z" fill="#3A3468"/>
<path d="M210.883 78.2465C211.37 84.4394 216.836 89.0667 222.999 88.5448L222.093 77.3071L210.883 78.2465Z" fill="#807EA3"/>
<path d="M235.219 74.489C234.731 68.2961 229.265 63.6688 223.103 64.1907L224.008 75.4284L235.219 74.489Z" fill="#FE7D57"/>
<path d="M233.269 76.4374C233.756 82.6303 229.126 88.0578 222.964 88.5449L222.059 77.3072L233.269 76.4374Z" fill="#F6FF94"/>
<path d="M258.51 521.631H287.545C287.545 521.631 285.77 527.789 289.669 528.451H261.921C261.921 528.451 257.535 528.798 258.51 521.631Z" fill="#CEAFD8"/>
<path d="M262.096 492.128H289.843L288.067 521.632H258.684L262.096 492.128Z" fill="white"/>
<path d="M289.913 492.302L293.812 519.231C293.812 519.231 295.065 524.902 292.767 527.163L290.609 528.451H289.913V492.302Z" fill="#CDAFD7"/>
<path d="M289.913 492.302L286.501 519.231C286.501 519.231 285.387 524.902 287.406 527.163L289.286 528.451H289.913V492.302Z" fill="#A589C3"/>
<path d="M289.843 486.144H261.991V492.128H289.843V486.144Z" fill="#C9D2E9"/>
<path d="M274.037 514.186C278.517 514.186 282.149 510.915 282.149 506.88C282.149 502.845 278.517 499.573 274.037 499.573C269.557 499.573 265.925 502.845 265.925 506.88C265.925 510.915 269.557 514.186 274.037 514.186Z" fill="#E9DEED"/>
<path d="M275.743 505.697C276.126 505.488 276.544 505.349 276.962 505.245C276.265 504.375 274.803 504.027 273.341 504.444C271.53 504.966 270.381 506.497 270.764 507.819C270.799 507.993 270.869 508.132 270.973 508.272C271.948 507.993 272.888 507.541 273.759 506.984C274.42 506.567 275.047 506.08 275.743 505.697Z" fill="#A78CC4"/>
<path d="M275.047 506.567C274.664 506.775 274.316 507.089 273.967 507.367C273.236 507.993 272.366 508.515 271.496 508.863C272.262 509.454 273.48 509.628 274.733 509.28C276.474 508.759 277.623 507.332 277.31 506.01C276.579 506.219 275.743 506.219 275.047 506.567Z" fill="#A78CC4"/>
<path d="M379.004 528.799H292.907V459.111C292.907 456.223 295.274 453.892 298.129 453.892H373.816C376.706 453.892 379.039 456.258 379.039 459.111V528.799H379.004Z" fill="#F4F4F4"/>
<path d="M362.293 480.89H360.343V492.024H362.293V480.89Z" fill="#9B9B9B"/>
<path d="M366.47 480.89H364.521V492.024H366.47V480.89Z" fill="#9B9B9B"/>
<path d="M370.648 480.89H368.699V492.024H370.648V480.89Z" fill="#9B9B9B"/>
<path d="M356.339 475.498H295.866V518.848H356.339V475.498Z" fill="#9B9B9B"/>
<path d="M301.436 518.848H356.2V475.95C354.842 475.95 353.519 479.29 352.162 479.29C335.242 479.29 318.321 479.012 301.401 479.012C301.436 492.302 301.436 505.592 301.436 518.848Z" fill="#C4C4C4"/>
<path d="M326.05 479.499H304.465V483.813H326.05V479.499Z" fill="#605F5F"/>
<path d="M306.136 483.813V487.849C306.136 487.849 311.95 490.215 312.264 495.364H318.496C318.496 495.364 318.635 488.927 324.414 487.849V483.813H306.136Z" fill="#9B9B9B"/>
<path d="M316.964 495.364H313.622V499.4H316.964V495.364Z" fill="#605F5F"/>
<path d="M330.924 483.256V484.926H324.414V486.457H330.924V488.684H347.636V483.256H330.924Z" fill="#605F5F"/>
<path d="M351.187 528.59H282.915V524.937C282.915 521.597 285.665 518.848 289.007 518.848H351.187V528.59Z" fill="white"/>
<path d="M342.274 526.154H291.827V528.659H342.274V526.154Z" fill="#9B9B9B"/>
<path d="M364.103 438.549H332.143V443.837H364.103V438.549Z" fill="white"/>
<path d="M358.498 449.961H337.748V453.857H358.498V449.961Z" fill="#C4C4C4"/>
<path d="M358.533 449.961H337.713L332.143 443.837H364.103L358.533 449.961Z" fill="#9B9B9B"/>
<path d="M347.601 453.857H287.51C285.247 453.857 283.402 455.736 283.402 458.032V470.001C283.402 472.297 285.247 474.176 287.51 474.176H296.458C296.319 474.558 296.249 474.976 296.249 475.428C296.249 477.481 297.92 479.186 299.939 479.186H329.427C331.447 479.186 333.118 477.481 333.118 475.428C333.118 474.976 333.048 474.558 332.909 474.176H347.601C349.864 474.176 351.709 472.297 351.709 470.001V458.032C351.709 455.736 349.864 453.857 347.601 453.857Z" fill="white"/>
<path d="M317.138 475.115C321.137 475.115 324.379 471.875 324.379 467.878C324.379 463.882 321.137 460.642 317.138 460.642C313.138 460.642 309.896 463.882 309.896 467.878C309.896 471.875 313.138 475.115 317.138 475.115Z" fill="#9B9B9B"/>
<path d="M289.356 465.86C290.644 465.86 291.688 464.817 291.688 463.529C291.688 462.242 290.644 461.198 289.356 461.198C288.067 461.198 287.023 462.242 287.023 463.529C287.023 464.817 288.067 465.86 289.356 465.86Z" fill="#605F5F"/>
<path d="M297.119 465.86C298.407 465.86 299.452 464.817 299.452 463.529C299.452 462.242 298.407 461.198 297.119 461.198C295.831 461.198 294.787 462.242 294.787 463.529C294.787 464.817 295.831 465.86 297.119 465.86Z" fill="#605F5F"/>
<path d="M304.883 465.86C306.171 465.86 307.216 464.817 307.216 463.529C307.216 462.242 306.171 461.198 304.883 461.198C303.595 461.198 302.55 462.242 302.55 463.529C302.55 464.817 303.595 465.86 304.883 465.86Z" fill="#605F5F"/>
<path d="M337.47 460.85H333.292V466.208H337.47V460.85Z" fill="#7B2A49"/>
<path d="M341.647 460.85H337.47V466.208H341.647V460.85Z" fill="#DB6D54"/>
<path d="M345.825 460.85H341.647V466.208H345.825V460.85Z" fill="#FFCB25"/>
<path d="M364.242 466.869H363.407C361.805 466.869 360.482 465.547 360.482 463.947V463.112C360.482 461.511 361.805 460.189 363.407 460.189H364.242C365.844 460.189 367.167 461.511 367.167 463.112V463.947C367.167 465.547 365.844 466.869 364.242 466.869Z" fill="#9B9B9B"/>
<path d="M364.242 466.452H363.407C361.805 466.452 360.482 465.13 360.482 463.529V462.694C360.482 461.094 361.805 459.772 363.407 459.772H364.242C365.844 459.772 367.167 461.094 367.167 462.694V463.529C367.167 465.165 365.844 466.452 364.242 466.452Z" fill="#9B9B9B"/>
<path d="M365.635 466.869H364.799C363.198 466.869 361.875 465.547 361.875 463.947V463.112C361.875 461.511 363.198 460.189 364.799 460.189H365.635C367.236 460.189 368.559 461.511 368.559 463.112V463.947C368.559 465.547 367.236 466.869 365.635 466.869Z" fill="#C4C4C4"/>
<path d="M376.393 528.485H0.392578V534.191H376.393V528.485Z" fill="#5B3C0A"/>
</g>
<defs>
<clipPath id="clip0">
<rect width="376" height="668" fill="white" transform="translate(-1)"/>
</clipPath>
</defs>
</svg>
