<svg width="22" height="23" viewBox="0 0 22 23" fill="none" xmlns="http://www.w3.org/2000/svg">
<g clip-path="url(#clip0)">
<path d="M17.0171 23H4.7648C3.6394 23 2.72274 22.033 2.72274 20.8438V10.7812C2.72274 9.59196 3.6394 8.625 4.7648 8.625H17.0171C18.1425 8.625 19.0592 9.59196 19.0592 10.7812V20.8438C19.0592 22.033 18.1425 23 17.0171 23ZM4.7648 10.0625C4.38996 10.0625 4.08411 10.3845 4.08411 10.7812V20.8438C4.08411 21.2405 4.38996 21.5625 4.7648 21.5625H17.0171C17.392 21.5625 17.6978 21.2405 17.6978 20.8438V10.7812C17.6978 10.3845 17.392 10.0625 17.0171 10.0625H4.7648Z" fill="#D8D8D5"/>
<path d="M15.6558 10.0625C15.28 10.0625 14.9751 9.7405 14.9751 9.34375V5.75C14.9751 3.37238 13.1427 1.4375 10.891 1.4375C8.63926 1.4375 6.80685 3.37238 6.80685 5.75V9.34375C6.80685 9.7405 6.5019 10.0625 6.12617 10.0625C5.75043 10.0625 5.44548 9.7405 5.44548 9.34375V5.75C5.44548 2.57887 7.88778 0 10.891 0C13.8941 0 16.3364 2.57887 16.3364 5.75V9.34375C16.3364 9.7405 16.0315 10.0625 15.6558 10.0625Z" fill="#D8D8D5"/>
<path d="M10.891 16.2916C9.88991 16.2916 9.07581 15.432 9.07581 14.375C9.07581 13.3179 9.88991 12.4583 10.891 12.4583C11.892 12.4583 12.7061 13.3179 12.7061 14.375C12.7061 15.432 11.892 16.2916 10.891 16.2916ZM10.891 13.8958C10.6414 13.8958 10.4372 14.1105 10.4372 14.375C10.4372 14.6395 10.6414 14.8541 10.891 14.8541C11.1406 14.8541 11.3448 14.6395 11.3448 14.375C11.3448 14.1105 11.1406 13.8958 10.891 13.8958Z" fill="#D8D8D5"/>
<path d="M10.891 19.1667C10.5152 19.1667 10.2103 18.8447 10.2103 18.4479V15.8125C10.2103 15.4157 10.5152 15.0938 10.891 15.0938C11.2667 15.0938 11.5717 15.4157 11.5717 15.8125V18.4479C11.5717 18.8447 11.2667 19.1667 10.891 19.1667Z" fill="#D8D8D5"/>
</g>
<defs>
<clipPath id="clip0">
<rect width="21.7819" height="23" fill="white"/>
</clipPath>
</defs>
</svg>
