<svg width="19" height="20" viewBox="0 0 19 20" fill="none" xmlns="http://www.w3.org/2000/svg">
<g clip-path="url(#clip0)">
<path d="M14.7975 20H4.14331C3.16471 20 2.36761 19.1592 2.36761 18.125V9.375C2.36761 8.34083 3.16471 7.5 4.14331 7.5H14.7975C15.7761 7.5 16.5732 8.34083 16.5732 9.375V18.125C16.5732 19.1592 15.7761 20 14.7975 20ZM4.14331 8.75C3.81738 8.75 3.55141 9.03 3.55141 9.375V18.125C3.55141 18.47 3.81738 18.75 4.14331 18.75H14.7975C15.1235 18.75 15.3894 18.47 15.3894 18.125V9.375C15.3894 9.03 15.1235 8.75 14.7975 8.75H4.14331Z" fill="#262626"/>
<path d="M13.6137 8.75C13.287 8.75 13.0218 8.47 13.0218 8.125V5C13.0218 2.9325 11.4284 1.25 9.47043 1.25C7.51243 1.25 5.91903 2.9325 5.91903 5V8.125C5.91903 8.47 5.65386 8.75 5.32713 8.75C5.0004 8.75 4.73523 8.47 4.73523 8.125V5C4.73523 2.2425 6.85897 0 9.47043 0C12.0819 0 14.2056 2.2425 14.2056 5V8.125C14.2056 8.47 13.9405 8.75 13.6137 8.75Z" fill="#262626"/>
<path d="M9.47043 14.1666C8.59994 14.1666 7.89203 13.4191 7.89203 12.5C7.89203 11.5808 8.59994 10.8333 9.47043 10.8333C10.3409 10.8333 11.0488 11.5808 11.0488 12.5C11.0488 13.4191 10.3409 14.1666 9.47043 14.1666ZM9.47043 12.0833C9.2534 12.0833 9.07583 12.27 9.07583 12.5C9.07583 12.73 9.2534 12.9166 9.47043 12.9166C9.68746 12.9166 9.86503 12.73 9.86503 12.5C9.86503 12.27 9.68746 12.0833 9.47043 12.0833Z" fill="#262626"/>
<path d="M9.47038 16.6667C9.14365 16.6667 8.87848 16.3867 8.87848 16.0417V13.75C8.87848 13.405 9.14365 13.125 9.47038 13.125C9.79711 13.125 10.0623 13.405 10.0623 13.75V16.0417C10.0623 16.3867 9.79711 16.6667 9.47038 16.6667Z" fill="#262626"/>
</g>
<defs>
<clipPath id="clip0">
<rect width="18.9408" height="20" fill="white"/>
</clipPath>
</defs>
</svg>
