<svg width="20" height="20" viewBox="0 0 20 20" fill="none" xmlns="http://www.w3.org/2000/svg">
<path d="M15.8063 12.3892C15.3969 11.9629 14.903 11.735 14.3796 11.735C13.8604 11.735 13.3623 11.9587 12.9359 12.385L11.6021 13.7147C11.4923 13.6556 11.3826 13.6007 11.277 13.5458C11.1251 13.4699 10.9815 13.3981 10.8591 13.3221C9.60968 12.5285 8.47419 11.4944 7.38514 10.1563C6.8575 9.48932 6.50292 8.92791 6.24544 8.35806C6.59157 8.04147 6.91238 7.71222 7.22474 7.39564C7.34293 7.27745 7.46112 7.15503 7.57931 7.03684C8.46575 6.1504 8.46575 5.00225 7.57931 4.11582L6.42694 2.96345C6.29609 2.83259 6.16101 2.69751 6.03438 2.56244C5.78111 2.30073 5.51518 2.03057 5.24081 1.77731C4.83136 1.37208 4.3417 1.1568 3.82673 1.1568C3.31175 1.1568 2.81365 1.37208 2.39154 1.77731C2.38732 1.78153 2.38732 1.78153 2.3831 1.78575L0.947912 3.2336C0.407607 3.7739 0.0994644 4.4324 0.0319262 5.19643C-0.069381 6.429 0.293637 7.57715 0.572231 8.32851C1.25606 10.1731 2.27757 11.8827 3.8014 13.7147C5.65026 15.9223 7.87479 17.6657 10.4159 18.894C11.3868 19.3541 12.6827 19.8986 14.1305 19.9915C14.2192 19.9957 14.312 20 14.3964 20C15.3715 20 16.1904 19.6496 16.832 18.9531C16.8363 18.9447 16.8447 18.9404 16.8489 18.932C17.0684 18.6661 17.3217 18.4255 17.5876 18.168C17.7691 17.9949 17.9549 17.8134 18.1364 17.6235C18.5543 17.1887 18.7738 16.6821 18.7738 16.1629C18.7738 15.6395 18.55 15.1372 18.1237 14.7151L15.8063 12.3892ZM17.3175 16.8341C17.3132 16.8341 17.3132 16.8383 17.3175 16.8341C17.1528 17.0114 16.984 17.1718 16.8025 17.3491C16.5281 17.6108 16.2495 17.8852 15.9878 18.1933C15.5615 18.6492 15.0592 18.8645 14.4007 18.8645C14.3374 18.8645 14.2698 18.8645 14.2065 18.8602C12.9528 18.78 11.7878 18.2904 10.914 17.8725C8.52485 16.7159 6.42694 15.0739 4.68362 12.9929C3.24421 11.258 2.28179 9.65395 1.6444 7.93172C1.25183 6.88066 1.10832 6.06176 1.17163 5.28929C1.21384 4.79542 1.40379 4.38597 1.75415 4.03561L3.19356 2.59621C3.40039 2.40203 3.61989 2.29651 3.83517 2.29651C4.1011 2.29651 4.31638 2.45691 4.45145 2.59199C4.45568 2.59621 4.4599 2.60043 4.46412 2.60465C4.72161 2.84525 4.96643 3.0943 5.22392 3.36023C5.35478 3.49531 5.48985 3.63039 5.62493 3.76968L6.7773 4.92205C7.22474 5.36949 7.22474 5.78317 6.7773 6.23061C6.65489 6.35302 6.53669 6.47543 6.41428 6.59362C6.05971 6.95664 5.72202 7.29433 5.35478 7.62358C5.34633 7.63202 5.33789 7.63624 5.33367 7.64469C4.97065 8.0077 5.03819 8.36228 5.11417 8.60288C5.11839 8.61555 5.12261 8.62821 5.12684 8.64087C5.42654 9.36691 5.84865 10.0507 6.49026 10.8654L6.49448 10.8696C7.65952 12.3048 8.88787 13.4234 10.2429 14.2803C10.4159 14.3901 10.5932 14.4787 10.762 14.5631C10.914 14.6391 11.0575 14.7109 11.1799 14.7868C11.1968 14.7953 11.2137 14.808 11.2306 14.8164C11.3741 14.8882 11.5092 14.9219 11.6485 14.9219C11.9988 14.9219 12.2183 14.7024 12.2901 14.6307L13.7337 13.187C13.8772 13.0435 14.1052 12.8705 14.3711 12.8705C14.6328 12.8705 14.8481 13.0351 14.979 13.1786C14.9832 13.1828 14.9832 13.1828 14.9874 13.187L17.3132 15.5129C17.748 15.9434 17.748 16.3867 17.3175 16.8341Z" fill="#D8D8D5"/>
<path d="M10.8085 4.75747C11.9144 4.9432 12.9191 5.46662 13.7211 6.26863C14.5231 7.07065 15.0423 8.07528 15.2322 9.18122C15.2787 9.45981 15.5193 9.65398 15.7937 9.65398C15.8274 9.65398 15.857 9.64976 15.8907 9.64554C16.2031 9.59489 16.4099 9.29941 16.3593 8.98705C16.1313 7.64894 15.4982 6.42904 14.5315 5.4624C13.5649 4.49576 12.345 3.86258 11.0069 3.63464C10.6945 3.58399 10.4032 3.79083 10.3484 4.09897C10.2935 4.40711 10.4961 4.70681 10.8085 4.75747Z" fill="#D8D8D5"/>
<path d="M19.9768 8.82236C19.6011 6.61893 18.5627 4.61389 16.9671 3.0183C15.3715 1.42271 13.3665 0.384308 11.1631 0.00862669C10.8549 -0.0462481 10.5637 0.164809 10.5088 0.472952C10.4581 0.785316 10.665 1.07657 10.9773 1.13145C12.9444 1.46492 14.7384 2.39779 16.1651 3.82031C17.5919 5.24706 18.5205 7.04104 18.854 9.00809C18.9004 9.28669 19.141 9.48086 19.4154 9.48086C19.4492 9.48086 19.4787 9.47664 19.5125 9.47242C19.8206 9.42598 20.0317 9.1305 19.9768 8.82236Z" fill="#D8D8D5"/>
</svg>
