<svg width="333" height="359" viewBox="0 0 333 359" fill="none" xmlns="http://www.w3.org/2000/svg">
<path opacity="0.22" d="M33.8 234C-6.29996 197.5 10.7 105.7 10.7 105.7C15 83.1 18.9 68.2 30.6 49.3C36.4 39.9 42.4 30.4 50.3 23.6C70.3 6.40003 107.1 4.60003 128.7 19C150.3 33.5 165.9 57.2 179.7 81.1C193.9 105.7 208.8 132.8 233.1 142.8C249.5 149.5 267.9 147 284.7 152.5C306.1 159.5 323.8 179.8 329.7 204.3C335.7 228.8 327.9 255.8 314.4 275.3C308.4 285.3 299.5 294.3 299.5 294.3C272.4 316.2 241.5 335.3 206.6 347C171.7 358.7 132.5 362.6 96.2 354.5C90.5 353.2 84.8 351.6 79.9 348.7C63.4 338.9 62.6 319 59.7 302.2C56.4 282.7 52.8 260.6 40.2 244L33.8 234Z" fill="#007FC2"/>
<path opacity="0.71" d="M246.853 18.6572C232.437 8.81936 213.887 10.9031 205.419 23.3114C196.951 35.7197 201.772 53.7538 216.188 63.5916C230.603 73.4294 249.154 71.3456 257.622 58.9373C266.09 46.529 261.268 28.495 246.853 18.6572Z" fill="#FFCD5C"/>
<path opacity="0.71" d="M58.4 278.6C49 279.1 39.7 280.2 30.4 281.9C20.7 283.6 10.5999 286.2 3.49995 293.1C2.39995 294.2 1.29995 295.5 0.999949 297.1C0.499949 300.4 3.79995 302.9 6.69995 304.4C29.7999 316.4 57.0999 316.2 83.0999 316.4C94.5999 316.5 106 316.6 117.5 316.9C127.6 317.1 137.8 317.5 147.5 320C153.1 321.4 158.6 323.6 164.2 325.1C173.1 327.5 182.3 328.2 191.5 328.9C215.6 330.8 239.8 332.6 263.9 334.5C271.1 335.1 278.6 335.6 285.2 332.6C298.1 326.8 303.2 309.7 316.4 304.4C321.3 302.4 327.3 302 330.7 297.9C334.9 292.7 331.8 284.4 326.2 280.7C320.6 277 313.6 276.8 306.9 276.6C272.6 275.8 238.2 275 203.9 274.1" fill="#314587"/>
<path d="M204.3 226.4H267.5C267.5 226.4 283.3 230.5 285.3 247.5L301.1 300.2H204.3V226.4Z" fill="#C99885"/>
<path d="M181.3 226.4H244.5C244.5 226.4 260.3 230.5 262.3 247.5L278.1 298.9H181.3V226.4Z" fill="#F3DDB6"/>
<path d="M57.6 264V139.5H150.1V262.6L57.6 264Z" fill="#F3DDB6"/>
<path d="M57.6 139.5V226H94.1L72.6 160.9C72.6 160.9 64.1 139 79.1 139.6H57.6V139.5Z" fill="#E1AB91"/>
<path d="M158.8 44.5C158.8 44.5 145.3 54.3 147.7 70.7C147.7 70.7 147.6 73.4 149.8 78.1C171 79 191.7 50.2 191.7 50.2C198.9 59.9 203.1 63.1 205.5 64C205.4 59.9 203.8 37.2 174.3 40.8C174.3 40.8 175.1 15.8 146.6 25.6C146.6 25.6 132 31.1 126.4 47.3C126.4 47.3 121.9 68 136.4 89.2C136.4 89.2 144.8 103.2 131.2 106.3C131.2 106.3 154.7 115.2 160.3 98.1L163.8 91.6" fill="#030330"/>
<path d="M132.8 127.3C137.5 124.2 156.1 122 156.1 122L161.9 94.5C159.2 91.8 156.9 89.3 155.1 87C152.4 87.8 148.9 86.8 146.2 84.3C142.5 80.8 141.8 75.6 144.5 72.7C147.2 69.8 152.5 70.2 156.2 73.7C157.2 74.7 158.1 75.9 158.7 77.1C176.3 71.6 191.5 50.5 191.5 50.5C194.9 55 197.5 58.1 199.8 60.3C199.9 62.6 200.3 69.3 199.8 76.2C198.4 77.3 197.4 79.1 197.5 81.2C197.6 82.5 198 83.7 198.7 84.6C197.9 88.7 196.5 92.3 194.6 94.2C194.6 94.2 190.8 101.6 183 101.7C182 101.5 179.7 101.4 179.7 101.4L177.2 125.8C193.3 127.5 197.5 136.5 197.5 136.5C194.5 167.2 158.4 162.5 158.4 162.5C139.4 155.6 128.1 130.4 132.8 127.3Z" fill="#FFD0B6"/>
<path d="M170.9 85.8C174.214 85.8 176.9 83.1137 176.9 79.8C176.9 76.4863 174.214 73.8 170.9 73.8C167.586 73.8 164.9 76.4863 164.9 79.8C164.9 83.1137 167.586 85.8 170.9 85.8Z" fill="#F8AD80"/>
<path d="M197.5 81.1C197.3 77.9 199.7 75.2 202.7 75C203.5 75 204.4 75.2 205.2 75.5C204.7 81.6 203.6 85.1 202.9 86.7C200.1 86.7 197.6 84.2 197.5 81.1Z" fill="#F8AD80"/>
<path d="M197.5 81.1C197.4 79 198.3 77.2 199.8 76.1C199.6 78.9 199.2 81.9 198.8 84.5C198 83.5 197.5 82.3 197.5 81.1Z" fill="#F8AD80"/>
<path d="M194.5 94C196.6 92.1 197.9 88.5 198.6 84.4C199.6 85.7 201.1 86.6 202.8 86.7C202.5 87.5 202.3 87.7 202.3 87.7C199.1 102.3 187.2 102.2 182.7 101.6C190.7 101.6 194.5 94 194.5 94Z" fill="#FBBC97"/>
<path d="M205.3 64.1C205.3 64.5 205.3 64.8 205.3 64.8C205.5 69 205.4 72.5 205.2 75.5C204.4 75.1 203.6 74.9 202.7 75C201.6 75.1 200.5 75.5 199.8 76.1C200.3 69.1 200 62.4 199.8 60.2C202.2 62.5 204 63.7 205.3 64.1Z" fill="#FBBC97"/>
<path d="M177.74 72.7275C177.797 73.9965 178.737 74.9851 179.841 74.9357C180.944 74.8863 181.793 73.8175 181.736 72.5486C181.679 71.2796 180.739 70.2909 179.635 70.3403C178.532 70.3897 177.683 71.4585 177.74 72.7275Z" fill="#030330"/>
<path d="M198.351 72.4695C198.408 73.7385 199.348 74.7272 200.452 74.6778C201.555 74.6284 202.404 73.5596 202.347 72.2906C202.29 71.0216 201.349 70.033 200.246 70.0824C199.142 70.1318 198.294 71.2005 198.351 72.4695Z" fill="#030330"/>
<path d="M191 70.5C191 70.5 190 75.8001 193.7 77.7001C193.7 77.7001 194.8 78.6 193.8 79.5C193.8 79.5 191.2 80.2 191.2 80.6C191.2 80.6 189.6 80.5 189.8 79.8C189.9 79.1 189.9 79.1 189.9 79.1C189.9 79.1 190.2 78.2001 192 78.7001C192 78.7001 193 77.6 190.6 76.3C190.6 76.3 189.8 75.4001 189.5 72.7001C189.5 72.9001 189.1 68.2 191 70.5Z" fill="#030330"/>
<path d="M187.3 86.4C187.3 86.4 189.8 85.2 187.2 84.8C187.2 84.8 185.3 86.3 181.1 82.9C181.1 82.9 179.6 81.7 179.8 83.6C179.8 83.5 182.9 86.7 187.3 86.4Z" fill="#030330"/>
<path d="M155.1 84.2C155.1 84.2 154.6 85.8 152.8 84.3C152.8 84.3 152.6 80.7 148.8 82.5C148.8 82.5 146.9 81.1 148.7 80.3C148.8 80.3 153.6 79.9 155.1 84.2Z" fill="#030330"/>
<path d="M179.6 101.1C179.6 101.1 174.7 100.5 170.3 97.9C170.3 97.9 170.7 103.7 179.1 106.3L179.6 101.1Z" fill="#030330"/>
<path d="M163.9 245.3C169.3 248.2 175.2 253 178.1 255.6C176.7 259.6 172.7 270.7 169.5 274.2C148 266.7 133.7 259.9 124.2 254.2C123 253.4 121.7 252.7 120.7 252C106.5 242.9 105.3 237.2 105.3 237.2C97 204.1 102.4 170.3 102.4 170.3C104.9 116.6 156.9 116.5 156.9 116.5C169.6 129 177.8 120.4 177.8 120.4C203 121.7 209.4 141.8 209.4 141.8C216.7 156.8 225.9 168.2 225.9 168.2C229.9 157.5 232.7 151.2 235.4 146.3C237.6 147.9 244.6 150.9 259.1 151.1C252.1 198.8 240.5 210.7 240.5 210.7C234.9 215.3 223 212.1 223 212.1L201.5 195.9L194.6 213.5C192.7 218.1 191.3 224.2 189.5 227.4C185.8 239.8 192.6 245.2 192.6 245.2C192.6 245.2 199.5 250 219.8 251.1L241.3 250.5C241.3 250.5 269.4 253.9 274 264.6C274 264.6 279 273.3 281.7 300L129.4 299.8" fill="#FCF575"/>
<path d="M129.6 189.2C130.4 199.6 130 209.9 129.5 220.3C131.6 208.3 132.6 196.1 132.6 183.9C132.6 181.5 132.1 178.6 130 177.9C129.1 181.5 128.9 185.3 129.5 189" fill="#F9ED62"/>
<path d="M238.7 205C239.9 204.5 239.3 204.8 240.4 204.6C241.5 204.4 243 205.2 243 206.4C243 206.9 242.8 207.3 242.6 207.7C240.8 211.1 236.9 213.4 233 213.3C232.7 213.3 232.5 213.3 232.2 213.1C232 213 231.8 212.7 231.7 212.5C230.9 210.8 231.7 208.7 233.1 207.5C234.5 206.3 236.4 205.7 238.2 205.1L238.7 205Z" fill="#F9ED62"/>
<path d="M224.6 168.4C222.6 172.5 221.7 177.3 221.9 181.9C222 184.6 222.9 187.9 225.6 188.8C224.5 184.6 223.9 180.1 224 175.8C224 174.8 224.1 173.5 224.9 172.8C224.2 175.5 226.2 178.1 228 180.2C230.2 182.7 232.3 185.1 234.5 187.6C234.7 186.4 233.8 185.2 233.1 184.2C230.2 180.5 227.8 176.4 226.1 172C225.8 172.8 226.5 173.8 227.4 174.2C228.2 174.6 229.2 174.6 230.1 174.8C231.3 175.1 232.5 175.7 233.3 176.8C233.7 176.1 233.4 175.3 232.9 174.8C232.4 174.3 231.7 174 231.1 173.7C228.8 172.5 226.8 170.6 226.2 168.1C225.4 167.9 224.7 168.4 224.5 169.1" fill="#F9ED62"/>
<path d="M259.08 150.957C259.358 149.604 254.276 147.419 247.73 146.076C241.183 144.732 235.651 144.74 235.374 146.093C235.096 147.445 240.178 149.63 246.725 150.974C253.271 152.317 258.803 152.309 259.08 150.957Z" fill="#F9ED62"/>
<path d="M242.2 122.7L259.4 126.8C260.3 127 261.4 126.4 261.6 125.6L269.6 95.3C269.9 94.4 269.2 93.5 268.3 93.2L251.1 89.1C250.2 88.9 249.1 89.5 248.9 90.3L240.9 120.6C240.6 121.5 241.2 122.5 242.2 122.7Z" fill="#093170"/>
<path d="M243.7 121.6L258.4 125C259.3 125.2 260.4 124.6 260.6 123.8L268 96.3C268.3 95.4 267.6 94.5 266.7 94.2L252 90.8C251.1 90.6 250 91.2 249.8 92L242.4 119.5C242.2 120.5 242.8 121.4 243.7 121.6Z" fill="#029CE0"/>
<path d="M264.7 106.2C261.6 103.4 258.5 100.5 255.3 97.6001C253.9 96.4001 252.4 95.1001 250.5 94.7001C250 96.1001 249.6 97.7001 249.9 99.1001C250.3 100.6 251.4 101.7 252.5 102.9C255 105.4 257.4 107.9 259.9 110.4C260.8 111.3 261.9 112.6 261.5 113.8C261.5 114 261.4 114.2 261.2 114.3C260.6 114.7 260.2 113.8 260 113.3C259.5 112.3 258.5 111.6 257.5 110.9C254.8 109.1 251.9 107.4 249.2 105.6C248.8 105.3 248.4 105.1 247.9 105.1C247.2 106.3 246.5 107.7 247.1 109.1C247.5 109.9 248.2 110.6 249.1 111.2C252.6 113.7 256.1 116.4 259.6 118.9C259.9 119.1 260.3 119.4 260.6 119.3C261.1 119.2 261.4 118.7 261.4 118.3C263 114.3 264 110.2 264.7 106.2Z" fill="#48B8E9"/>
<path d="M243.6 123C244.1 125 245.1 126.9 245.3 128.8C245.5 131.3 241 146.8 239.8 149.2C243.9 151.2 249.2 151.5 253.9 151.9C254.7 147.8 260 132.3 262.3 128.7C268.4 119.1 271.6 107.8 271.3 96.6C271.3 96.6 271 94.9 270.1 94.9C269 94.8 268.1 95.8 267.8 96.9C267.5 97.8 267.6 99 267.6 100C267.6 102 267.3 104 266.8 105.8C265.8 104.4 264.2 104.4 264 105.7C263.9 108.2 264.7 109.9 264.5 112.6C263.7 112.6 262 111.8 261.2 113.6C261.2 116.2 261.9 119.5 262.2 122.7L261.8 124.3C261.8 124.3 261.4 126.8 258 126.4L243.6 123Z" fill="#FFD0B6"/>
<path d="M246 101.4C245.2 100.4 243.6 99.7 242.3 100.1C241.2 101.5 241.1 103.5 241.5 105.3C241.5 105.3 243.8 110.2 242.7 113.8L246 101.4Z" fill="#FFD0B6"/>
<path d="M188.6 229.9C188 233.1 186.2 236.6 183.8 238.7C183 239.3 182.2 239.7 181.4 240.2C179.1 241.6 177.2 243.5 175.7 245.7C177.5 246.4 179.4 245.6 181.3 245.2C182.7 244.9 184.2 244.8 185.7 244.7C186.8 244.6 187.4 243.8 188.2 244.6C189.1 243.8 190.7 243 189.9 242.1C187.4 239.2 188.1 234.3 188.5 230" fill="#F9ED62"/>
<path d="M222.9 251.2C236.3 250 242.9 250.3 253.6 253.3C254.1 253.4 256.6 254 256.9 254.3C257.1 254.6 256.9 255.6 257 256C257.1 258.5 256.6 261.1 255.7 263.4C254.5 264.1 252.7 263.5 252.1 262.3C251.8 261.7 251.7 261 251.2 260.6C250.6 260.3 250 260.5 249.4 260.8C243.6 263.6 238.2 267.7 233.8 272.5C232.3 274.2 230.8 276.1 229 277.5C227 279 224.8 280 222.5 281.1C220.2 282.3 218 283.7 215.4 284.1C212.9 284.6 209.8 283.6 208.8 281.3C207.6 278.8 209.1 275.8 210.5 273.4C212.9 269.4 215.3 265.4 218.4 261.9C218.4 261.9 222.1 257.1 222.7 252.1L222.9 251.2Z" fill="#F9ED62"/>
<path d="M220.5 191.3H196.2C193.8 191.3 192 189.4 192 187.1L193.7 174.7C193.7 172.3 195.6 170.5 197.9 170.5H222.3C224.7 170.5 226.5 172.4 226.5 174.7L224.8 187.1C224.9 189.3 222.9 191.3 220.5 191.3Z" fill="#282828"/>
<path d="M141.2 202.9C143.3 203.3 144.8 205.1 146.1 206.7C147.6 208.6 149.1 210.5 150.6 212.3C153.1 215.4 155.7 218.6 156.3 222.6C155.5 222.8 154.8 222.2 154.1 221.7C148.8 216.9 144.5 211.1 141.4 204.8" fill="#F9ED62"/>
<path d="M120.1 217.1C120.1 217.1 170.3 193.1 171.9 191.8C175.7 189 182.6 183.8 188.2 180.7C188.2 180.7 188.5 180.6 189 180.4C191 179.7 196.6 178 203.2 179.7C203.2 179.7 207.5 180.5 209.9 181.2C209.9 181.2 213.7 183.9 208.7 184.5L200.7 183.4C200.7 183.4 195.6 184.2 193.9 186C193.9 186 202.3 185 211.1 187.8C211.1 187.8 215.8 192.2 209.4 191.6C209.4 191.6 199.1 188.7 193.7 191.1C193.7 191.1 200.5 190.9 205.7 194.1C210.9 197.3 204.5 196.6 204.5 196.6C204.5 196.6 194.6 193.2 187.8 196.5C187.8 196.5 191.8 195.9 196.9 197.7C202.1 199.5 196.5 200.3 196.5 200.3C196.5 200.3 194 199.9 187.9 201.1C187.9 201.1 179.9 207.9 174.8 207.4C174.8 207.4 174 206.9 169.2 209.3C169.2 209.3 145.8 223.6 137.1 230.9L120.1 217.1Z" fill="#FDD1B6"/>
<path d="M111.1 220.7C114.1 214.1 120.7 209.3 127.9 208.4C132 207.9 137.5 205.9 140.5 203C141 202.5 141.3 202.1 142 202C142.8 201.8 142.8 205.1 143.2 205.8C146.4 209.9 147.8 215.8 152.3 218.6C153 219.1 155.5 222.9 155.5 223.8C155.5 224.2 155.3 224.6 155 224.9C150.2 229.3 146.8 230.4 142.8 234.1C142 234.9 141.1 235.7 140.1 236.2C139.3 236.6 138.2 236.8 137.3 237C131.5 237.9 125.3 238.8 119.8 236.8C114.2 234.7 109.7 228.9 111.1 223.2" fill="#FCF575"/>
<path d="M129.6 204.1C122.7 201.8 114.5 204.4 110.2 210.1C111.1 208.7 112.1 207.2 113.6 206.3C114.8 205.5 116.3 205.4 117.8 205.3C120.7 205.1 123.7 205.5 126.6 206.1C124.6 205.4 122.5 206.1 120.7 207.2C118.9 208.3 117.6 209.9 116.3 211.5C114 214.2 111.9 217.1 110.5 220.4C114.4 213.4 122.5 209 130.4 209.6C129.3 209.1 127.9 209.5 127 210.4C126.1 211.3 125.5 212.4 125.1 213.5C123.8 216.8 123.2 220.4 123.3 223.9C125.1 218.5 128.2 213.6 132.4 209.8C132.8 209.5 133.2 209 132.8 208.6C132.6 208.4 132.3 208.4 132 208.3C130.8 207.9 130.9 206.2 131.2 205" fill="#F9ED62"/>
<path d="M131.7 201.9C131.1 203.5 132.1 205.5 133.7 206C135.1 206.5 136.7 205.9 138 205.1C139.3 204.3 140.5 203.3 142.1 203C142.4 203.6 141.7 204.1 141.2 204.4C139.2 205.4 137.3 206.5 135.4 207.5C134.2 208.2 132.9 208.9 131.4 208.8C131.3 208.8 131.1 208.8 131 208.7C130.9 208.6 130.8 208.4 130.8 208.2C130.7 206.2 131 204.2 131.7 202.4" fill="#F9ED62"/>
<path d="M149.6 245.8C149 248.3 148.8 251.3 150.4 253.2C152.5 255.7 156.4 255.3 159.6 254.8C166 253.8 172.4 252.8 178.6 250.8C181.9 249.8 185.2 248.4 188.7 248.3C190.8 248.2 193.5 249.1 193.4 251.1C193.3 252.4 192 253.4 190.8 254C186.6 256 181.6 256.6 177.6 259.2C173.5 261.8 171.1 266.6 171.3 271.4C171.5 275.4 173.4 279.1 175.8 282.3C179.5 287.1 184.5 291 190.1 293.4C192.2 294.2 194.3 295 196.1 296.2C197.9 297.4 199.5 296.8 199.5 298.9H159.1L145.4 232.1C147.3 230.6 147.9 230.4 150.6 228.2C153 226.3 154.9 223.8 156.3 221L149.6 245.8Z" fill="#F9ED62"/>
<path d="M80.6 227.6H143.8C143.8 227.6 159.6 231.7 161.6 248.7L177.4 300.1H80.6V227.6Z" fill="#E1AB91"/>
<path d="M57.6 227.6H120.8C120.8 227.6 136.6 231.7 138.6 248.7L154.4 300.1H57.6V227.6Z" fill="#F3DDB6"/>
<path d="M225.9 178.3H193L193.4 175.2H226.4L225.9 178.3Z" fill="white"/>
<path d="M57.6 225.9C56.7 220 56.2 212.8 54.9 207C50.4 186.3 47 172.8 47 150.6C47 137.1 60.8 139.5 71.4 139.5C65.5 148.4 62.2 161.7 65.2 172C66 174.7 67 177.3 68.1 179.9C72.3 190.3 76.6 200.7 80.8 211C81.9 213.7 83 216.7 82.4 219.6C81.7 222.5 78.3 224.8 75.8 223.3" fill="#E1AB91"/>
<path d="M240.9 49.2H277.3C279.4 49.2 281.1 50.9 281.1 53V71.5C281.1 73.6 279.4 75.3 277.3 75.3H264.5L261.9 79.8L259.1 84.6L256.3 79.8L253.7 75.3H240.9C238.8 75.3 237.1 73.6 237.1 71.5V53C237.1 50.9 238.8 49.2 240.9 49.2Z" fill="white"/>
<path d="M258.1 69.2001C257.2 69.8001 256 69.6001 255.4 68.7001L250.6 61.8C250 60.9 250.2 59.7 251.1 59.1C252 58.5 253.2 58.7 253.8 59.6L258.6 66.5C259.2 67.4 258.9 68.6001 258.1 69.2001Z" fill="#3A7730"/>
<path d="M255.7 69.2C254.9 68.5 254.7 67.3 255.4 66.5L264.4 55.1C265.1 54.3 266.3 54.1 267.1 54.8C267.9 55.5 268.1 56.7 267.4 57.5L258.4 68.9C257.8 69.7 256.6 69.8 255.7 69.2Z" fill="#66BF37"/>
</svg>
