<svg width="200" height="200" viewBox="0 0 200 200" fill="none" xmlns="http://www.w3.org/2000/svg">
<path d="M182.607 78.1422L145.516 54.9516L121.74 17.2746C135.163 9.99418 149.759 4.92113 164.989 2.33871H165.003L174.136 0.787149C188.828 -1.70348 201.585 11.0539 199.098 25.7493L197.546 34.8965C195.123 49.1735 190.51 62.8981 183.946 75.6129C183.51 76.4594 183.064 77.3028 182.607 78.1422Z" fill="#9DC6FB"/>
<path d="M147.817 178.72C143.995 182.543 138.989 184.452 133.976 184.448C128.967 184.448 123.954 182.539 120.135 178.72L76.244 134.829L129.707 81.366L158.616 110.275L153.468 166.657C153.053 171.216 151.055 175.482 147.817 178.72Z" fill="#9DC6FB"/>
<path d="M129.707 81.366L76.2441 134.829L21.1656 79.7504C13.5203 72.1051 13.5242 59.7094 21.1656 52.0676C22.7848 50.4484 24.6621 49.1375 26.6992 48.1848C28.7434 47.2246 30.9504 46.6262 33.2285 46.4168L89.607 41.2656L129.707 81.366Z" fill="#80B4FB"/>
<path d="M52.7789 199.526L53.7215 172.194L14.1371 185.388L27.3316 145.804L0 146.747L17.4359 129.311C32.0105 114.736 55.6402 114.736 70.2144 129.311C84.7891 143.886 84.7891 167.515 70.2144 182.09L52.7789 199.526Z" fill="#E28086"/>
<path d="M62.6156 165.275L63.1222 150.586L41.8484 157.677L48.9398 136.404L34.2507 136.91L43.6214 127.54C51.4543 119.707 64.1535 119.707 71.9863 127.54C79.8191 135.372 79.8191 148.072 71.9863 155.904L62.6156 165.275Z" fill="#F6DE81"/>
<path d="M141.005 36.5403L145.291 54.5938L121.739 17.275C135.163 9.99458 149.759 4.92154 164.989 2.33912H165.003L174.136 0.787553C181.48 -0.455806 188.346 2.10904 193.061 6.82427C191.328 5.09185 187.449 5.51333 182.036 8.68794L175.301 12.6379L175.291 12.6415C164.064 19.227 152.483 27.3149 141.005 36.5403Z" fill="#80B4FB"/>
<path d="M158.619 110.271L105.156 163.734C102.828 166.062 99.0519 166.062 96.7245 163.734L36.1511 103.161C33.8202 100.83 33.8198 97.0536 36.1476 94.7259L89.6069 41.2665C99.1651 31.7083 110.002 23.6485 121.739 17.2751L182.607 78.1423C176.237 89.8829 168.174 100.716 158.619 110.271Z" fill="#F6F9F9"/>
<path d="M55.3208 122.33L36.1512 103.161C33.82 100.83 33.82 97.0532 36.1477 94.7258L89.6071 41.2665C99.1653 31.7083 110.002 23.6485 121.74 17.2755L141.005 36.5407C130.964 44.611 121.006 53.5493 111.448 63.1075L57.9887 116.566C55.661 118.894 54.4672 121.477 55.3208 122.33Z" fill="#DAE7EF"/>
<path d="M199.999 55.6357L199.943 55.6719L199.823 55.5961L199.999 55.6357Z" fill="#E28086"/>
<path d="M118.007 110.862C134.015 110.862 146.992 97.8851 146.992 81.877C146.992 65.8689 134.015 52.8918 118.007 52.8918C101.999 52.8918 89.0219 65.8689 89.0219 81.877C89.0219 97.8851 101.999 110.862 118.007 110.862Z" fill="#30579D"/>
<path d="M122.098 78.8598C119.313 77.8755 116.234 76.6864 114.503 75.3294C113.937 74.8852 113.7 73.9137 113.9 72.8544C114.101 71.7864 114.819 70.4938 116.229 70.0688C119.518 69.0782 121.685 70.7735 121.921 70.9704C123.204 72.036 125.106 71.8614 126.172 70.5798C127.238 69.2981 127.063 67.3954 125.781 66.3294C125.296 65.9258 123.525 64.5852 120.836 63.9989V62.7094C120.836 61.0426 119.485 59.6915 117.818 59.6915C116.151 59.6915 114.8 61.0426 114.8 62.7094V64.2024C114.696 64.2309 114.593 64.2575 114.488 64.2891C111.142 65.2969 108.643 68.1505 107.968 71.736C107.346 75.0348 108.423 78.2313 110.778 80.0786C112.727 81.6067 115.423 82.9024 120.086 84.5508C123.234 85.6633 123.165 88.2126 122.99 89.2567C122.635 91.368 120.859 93.6501 117.798 93.6704C114.82 93.6891 113.884 93.5422 111.589 92.0411C110.194 91.1286 108.323 91.52 107.411 92.9149C106.499 94.3098 106.89 96.1805 108.285 97.0926C110.755 98.7083 112.573 99.3571 114.8 99.5903V101.044C114.8 102.711 116.151 104.062 117.818 104.062C119.485 104.062 120.836 102.711 120.836 101.044V99.2969C125.38 98.0489 128.292 94.127 128.943 90.2575C129.795 85.1883 127.044 80.6083 122.098 78.8598Z" fill="#A8D4A4"/>
</svg>
