<svg width="19" height="20" viewBox="0 0 19 20" fill="none" xmlns="http://www.w3.org/2000/svg">
<path d="M9.33546 9.63408C10.5889 9.63408 11.6742 9.15938 12.5611 8.22279C13.4478 7.28636 13.8975 6.14058 13.8975 4.81689C13.8975 3.49365 13.448 2.34771 12.561 1.41098C11.674 0.4747 10.5888 0 9.33546 0C8.08186 0 6.99676 0.4747 6.10992 1.41113C5.22308 2.34756 4.77338 3.49349 4.77338 4.81689C4.77338 6.14058 5.22308 7.28652 6.10992 8.22295C6.99705 9.15922 8.0823 9.63408 9.33546 9.63408ZM6.89488 2.23983C7.57537 1.5213 8.37362 1.17203 9.33546 1.17203C10.2972 1.17203 11.0956 1.5213 11.7762 2.23983C12.4567 2.95852 12.7876 3.80157 12.7876 4.81689C12.7876 5.83251 12.4567 6.6754 11.7762 7.39409C11.0956 8.11278 10.2972 8.46205 9.33546 8.46205C8.37391 8.46205 7.57565 8.11263 6.89488 7.39409C6.21425 6.67555 5.88333 5.83251 5.88333 4.81689C5.88333 3.80157 6.21425 2.95852 6.89488 2.23983Z" fill="#262626"/>
<path d="M17.3178 15.379C17.2922 14.9893 17.2405 14.5642 17.1644 14.1153C17.0875 13.663 16.9885 13.2354 16.87 12.8447C16.7475 12.4408 16.5811 12.0419 16.3752 11.6597C16.1618 11.2629 15.9109 10.9175 15.6294 10.6332C15.335 10.3358 14.9746 10.0967 14.5579 9.9223C14.1426 9.74881 13.6823 9.66092 13.19 9.66092C12.9966 9.66092 12.8096 9.74469 12.4485 9.99295C12.2263 10.146 11.9663 10.323 11.6761 10.5188C11.428 10.6857 11.0919 10.8421 10.6767 10.9837C10.2717 11.1221 9.8604 11.1923 9.45434 11.1923C9.04856 11.1923 8.63729 11.1221 8.23195 10.9837C7.81722 10.8423 7.48095 10.6859 7.23327 10.5189C6.94584 10.325 6.68573 10.148 6.46015 9.9928C6.09932 9.74454 5.91233 9.66077 5.71898 9.66077C5.2265 9.66077 4.76639 9.74881 4.35122 9.92245C3.93475 10.0966 3.57421 10.3357 3.27956 10.6334C2.99806 10.9178 2.74719 11.2631 2.5339 11.6597C2.32827 12.0419 2.1618 12.4406 2.03925 12.8448C1.9209 13.2356 1.82192 13.663 1.74504 14.1153C1.66874 14.5636 1.61715 14.9888 1.59157 15.3794C1.56643 15.7614 1.55371 16.1589 1.55371 16.5605C1.55371 17.6045 1.86801 18.4497 2.4878 19.073C3.09993 19.6881 3.90975 19.9999 4.89486 19.9999H14.015C14.9998 19.9999 15.8096 19.6881 16.4219 19.073C17.0418 18.4501 17.3561 17.6046 17.3561 16.5603C17.356 16.1573 17.3431 15.7598 17.3178 15.379ZM15.6566 18.2238C15.2521 18.6303 14.7151 18.8279 14.0148 18.8279H4.89486C4.19443 18.8279 3.65744 18.6303 3.25311 18.224C2.85644 17.8253 2.66367 17.281 2.66367 16.5605C2.66367 16.1857 2.67537 15.8157 2.69878 15.4605C2.72162 15.112 2.76829 14.7291 2.83751 14.3223C2.90586 13.9206 2.99286 13.5435 3.09632 13.2022C3.1956 12.8749 3.331 12.5508 3.49892 12.2386C3.65918 11.941 3.84357 11.6858 4.04703 11.4801C4.23735 11.2877 4.47723 11.1302 4.75989 11.0121C5.0213 10.9028 5.31508 10.843 5.63401 10.834C5.67288 10.8558 5.7421 10.8975 5.85424 10.9747C6.08241 11.1317 6.34542 11.3108 6.63616 11.5069C6.9639 11.7276 7.38615 11.9268 7.89063 12.0988C8.40637 12.2749 8.93238 12.3643 9.45448 12.3643C9.97659 12.3643 10.5027 12.2749 11.0182 12.099C11.5231 11.9267 11.9452 11.7276 12.2734 11.5066C12.5709 11.3058 12.8266 11.1319 13.0547 10.9747C13.1669 10.8976 13.2361 10.8558 13.275 10.834C13.594 10.843 13.8878 10.9028 14.1494 11.0121C14.4319 11.1302 14.6718 11.2878 14.8621 11.4801C15.0655 11.6856 15.2499 11.9409 15.4102 12.2387C15.5783 12.5508 15.7138 12.875 15.8129 13.202C15.9165 13.5438 16.0037 13.9207 16.0719 14.3222C16.141 14.7297 16.1878 15.1127 16.2106 15.4606V15.4609C16.2342 15.8148 16.246 16.1846 16.2462 16.5605C16.246 17.2811 16.0532 17.8253 15.6566 18.2238Z" fill="#262626"/>
</svg>
