<svg width="22" height="23" viewBox="0 0 22 23" fill="none" xmlns="http://www.w3.org/2000/svg">
<path d="M10.7358 11.0792C12.1772 11.0792 13.4253 10.5333 14.4453 9.45621C15.465 8.37932 15.9821 7.06167 15.9821 5.53942C15.9821 4.01769 15.4652 2.69987 14.4451 1.62262C13.4251 0.545905 12.1771 0 10.7358 0C9.29412 0 8.04625 0.545905 7.02638 1.6228C6.00652 2.69969 5.48936 4.01752 5.48936 5.53942C5.48936 7.06167 6.00652 8.37949 7.02638 9.45639C8.04658 10.5331 9.29461 11.0792 10.7358 11.0792ZM7.92909 2.57581C8.71164 1.74949 9.62964 1.34783 10.7358 1.34783C11.8417 1.34783 12.7599 1.74949 13.5426 2.57581C14.3251 3.4023 14.7057 4.3718 14.7057 5.53942C14.7057 6.70738 14.3251 7.67671 13.5426 8.5032C12.7599 9.32969 11.8417 9.73136 10.7358 9.73136C9.62997 9.73136 8.71198 9.32952 7.92909 8.5032C7.14637 7.67689 6.76581 6.70738 6.76581 5.53942C6.76581 4.3718 7.14637 3.4023 7.92909 2.57581Z" fill="#D8D8D5"/>
<path d="M19.9155 17.6859C19.8861 17.2377 19.8266 16.7488 19.739 16.2326C19.6506 15.7125 19.5368 15.2208 19.4005 14.7714C19.2596 14.3069 19.0683 13.8482 18.8315 13.4087C18.5861 12.9524 18.2976 12.5551 17.9738 12.2282C17.6353 11.8862 17.2209 11.6113 16.7416 11.4107C16.264 11.2112 15.7347 11.1101 15.1685 11.1101C14.9462 11.1101 14.7311 11.2064 14.3158 11.4919C14.0602 11.6679 13.7613 11.8715 13.4276 12.0966C13.1422 12.2886 12.7557 12.4685 12.2783 12.6313C11.8124 12.7905 11.3395 12.8712 10.8725 12.8712C10.4059 12.8712 9.93292 12.7905 9.46677 12.6313C8.98983 12.4686 8.60312 12.2888 8.31828 12.0968C7.98775 11.8738 7.68862 11.6702 7.42921 11.4918C7.01425 11.2063 6.79921 11.1099 6.57685 11.1099C6.0105 11.1099 5.48138 11.2112 5.00393 11.4109C4.52499 11.6111 4.11037 11.8861 3.77152 12.2284C3.4478 12.5555 3.1593 12.9526 2.91402 13.4087C2.67754 13.8482 2.48609 14.3067 2.34517 14.7716C2.20907 15.221 2.09523 15.7125 2.00682 16.2326C1.91908 16.7481 1.85975 17.2372 1.83034 17.6864C1.80142 18.1256 1.7868 18.5827 1.7868 19.0446C1.7868 20.2452 2.14824 21.2172 2.861 21.934C3.56495 22.6413 4.49624 23 5.62911 23H16.1173C17.2498 23 18.1811 22.6413 18.8852 21.934C19.5981 21.2177 19.9596 20.2454 19.9596 19.0444C19.9594 18.581 19.9446 18.1239 19.9155 17.6859ZM18.0051 20.9574C17.5399 21.4249 16.9224 21.6522 16.1171 21.6522H5.62911C4.82362 21.6522 4.20609 21.4249 3.74111 20.9576C3.28494 20.4991 3.06325 19.8732 3.06325 19.0446C3.06325 18.6136 3.07671 18.1881 3.10363 17.7796C3.12989 17.3788 3.18356 16.9385 3.26317 16.4707C3.34177 16.0087 3.44181 15.5751 3.5608 15.1825C3.67497 14.8061 3.83068 14.4334 4.02379 14.0744C4.20808 13.7322 4.42013 13.4387 4.65412 13.2021C4.87298 12.9808 5.14884 12.7998 5.4739 12.6639C5.77452 12.5383 6.11237 12.4695 6.47914 12.4592C6.52384 12.4843 6.60344 12.5322 6.7324 12.6209C6.9948 12.8015 7.29726 13.0075 7.63162 13.233C8.00852 13.4867 8.49411 13.7159 9.07425 13.9137C9.66736 14.1162 10.2723 14.219 10.8727 14.219C11.4731 14.219 12.0782 14.1162 12.6709 13.9139C13.2516 13.7157 13.737 13.4867 14.1144 13.2327C14.4566 13.0017 14.7506 12.8017 15.013 12.6209C15.1419 12.5323 15.2215 12.4843 15.2662 12.4592C15.6332 12.4695 15.971 12.5383 16.2718 12.6639C16.5967 12.7998 16.8726 12.981 17.0914 13.2021C17.3254 13.4385 17.5374 13.7321 17.7217 14.0746C17.915 14.4334 18.0709 14.8063 18.1849 15.1824C18.3041 15.5754 18.4043 16.0089 18.4827 16.4705C18.5621 16.9392 18.616 17.3797 18.6422 17.7798V17.7801C18.6693 18.187 18.6829 18.6124 18.6831 19.0446C18.6829 19.8734 18.4613 20.4991 18.0051 20.9574Z" fill="#D8D8D5"/>
</svg>
